<?xml version="1.0" encoding="UTF-8"?>
<svg id="Capa_1" data-name="Capa 1" xmlns="http://www.w3.org/2000/svg" viewBox="0 0 1058.87 862.54">
  <defs>
    <style>
      .cls-1 {
        fill: #ab559b;
        opacity: .86;
      }
    </style>
  </defs>
  <path class="cls-1" d="M381.93,146.39S194.58,19.36,117.85,279.58c0,0-126.84-37.02-59.53,99.94,0,0-76.28,186.69,180.57,199.71,0,0-51.39,181.97,182.87,100.41,42.73,25.31,95.88,25.36,138.09.04,44.31-26.58,69.49-76.88,64.48-128.85,39.25,68.61,118.01,93.38,173.22,66.23,58.26-28.64,65.4-102.82,65.71-106.66,0,0,215.85-31.81,42.19-197.91,0,0,84.02-265.19-238.61-209.82,0,0-166.73-166.53-284.9,43.71Z"/>
  <path d="M83.09,271.65c-1.94,2.91-3.89,5.83-5.83,8.74-1.8,2.83-2.78,5.88-2.92,9.16-.73,3.28-.59,6.55.44,9.83.76,3.21,2.23,6,4.41,8.38,1.74,2.68,4.04,4.8,6.91,6.35,1.96.83,3.92,1.66,5.89,2.48,4.37,1.17,8.73,1.17,13.1,0,1.96-.83,3.92-1.66,5.89-2.48,3.7-2.19,6.65-5.14,8.84-8.84,1.94-2.91,3.89-5.83,5.83-8.74,1.8-2.83,2.78-5.88,2.92-9.16.73-3.28.59-6.55-.44-9.83-.76-3.21-2.23-6-4.41-8.38-1.74-2.68-4.04-4.8-6.91-6.35-1.96-.83-3.92-1.66-5.89-2.48-4.37-1.17-8.73-1.17-13.1,0-1.96.83-3.92,1.66-5.89,2.48-3.7,2.19-6.65,5.14-8.84,8.84h0Z"/>
  <path d="M452.72,226.79c10.61,24.32,21.22,48.64,31.83,72.95,2.3,5.28,9.44,9.87,14.73,11.32,5.9,1.62,13.75.89,18.99-2.48,5.26-3.39,9.89-8.44,11.32-14.73l.88-6.55c-.01-4.45-1.14-8.59-3.36-12.44-10.61-24.32-21.22-48.64-31.83-72.95-2.3-5.28-9.44-9.87-14.73-11.32-5.9-1.62-13.75-.89-18.99,2.48-5.26,3.39-9.89,8.44-11.32,14.73-.29,2.18-.59,4.37-.88,6.55.01,4.45,1.14,8.59,3.36,12.44h0Z"/>
  <path d="M382.6,118.52c-46.55-24.13-104.6-20.3-146.33,12.06-40.57,31.47-58.51,84.15-49.12,134.08,2.39,12.69,18.38,21.07,30.31,17.21,13.57-4.39,19.77-16.71,17.21-30.31-.24-1.28-.97-7.09-.53-2.68-.23-2.32-.42-4.64-.51-6.97-.18-4.67.02-9.31.36-13.97.54-7.36-1.04,4.56.35-2.69.44-2.3.88-4.58,1.42-6.85,1.09-4.56,2.6-8.95,4.09-13.39,1.63-4.84-1.36,2.26,1.13-2.73,1.05-2.09,2.04-4.2,3.16-6.25,2.05-3.76,4.31-7.39,6.77-10.89.66-.96,1.35-1.9,2.05-2.83-1.23,1.61-1.31,1.75-.23.43,1.52-1.77,3.05-3.52,4.66-5.21,1.61-1.69,3.27-3.32,4.99-4.89.63-.58,5.4-4.63,3.75-3.33-2.12,1.66,2.85-2,3.31-2.31,2.01-1.35,4.07-2.63,6.18-3.83s4.29-2.25,6.42-3.39c4.8-2.57-1.68.36,3.01-1.35,4.56-1.66,9.17-3.14,13.9-4.26,2.36-.56,4.74-1.02,7.13-1.45,7.47-1.35-4.5.15,3.08-.35,4.86-.32,9.68-.52,14.55-.32,2.42.1,4.84.29,7.26.53-4.33-.44,2.05.36,3.03.55,4.36.85,8.66,1.96,12.89,3.33.89.29,6.74,2.43,5,1.72-1.45-.64-.95-.4,1.5.7,1.46.69,2.91,1.42,4.34,2.18,11.43,5.93,27.28,3.33,33.71-8.84,5.98-11.31,3.38-27.38-8.84-33.71h0Z"/>
  <path d="M497.57,114.88c11.77-14.77,21.16-22.12,38.3-30.07,12.23-5.67,30.04-9.22,45.39-9.37,4.25-.04,8.5.1,12.74.43,2.11.16,4.24.34,6.34.62-4.38-.59,3.45.69,3.5.7,7.67,1.49,18.5,4.65,23.66,6.78,15.1,6.24,26.94,15.24,38.32,28.96,8.5,10.25,26.05,8.79,34.85,0,10.14-10.14,8.52-24.57,0-34.85-57.93-69.87-181.23-69.18-237.94,1.94-8.29,10.4-10.15,24.69,0,34.85,8.6,8.6,26.51,10.46,34.85,0h0Z"/>
  <path d="M760.26,147.82c1.55-.31,3.11-.58,4.68-.82-2.26.28-2.49.32-.7.12,2.73-.28,5.46-.49,8.2-.6,4.67-.18,9.34-.1,14,.24,1.55.11,3.1.25,4.64.42-2.7-.41-2.57-.39.37.06,2.29.41,4.59.81,6.86,1.3,4.56.99,9.07,2.2,13.51,3.64,8.98,2.9,13.63,4.88,24.04,10.95,10.79,6.3,14.86,9.41,22.58,16.43,3.79,3.45,7.43,7.08,10.88,10.87,1.59,1.75,3.14,3.53,4.66,5.35,1.01,1.21,2,2.43,2.97,3.67-1.22-1.55-1.32-1.65-.3-.28,5.94,8.31,11.09,17.02,15.4,26.29.71,1.59.65,1.41-.17-.53.59,1.44,1.15,2.89,1.69,4.35.81,2.19,1.56,4.39,2.26,6.62,1.51,4.82,2.74,9.72,3.69,14.67.2,1.04,1.16,8.97.67,3.83.22,2.33.43,4.66.55,7,.27,5.52.12,11.01-.3,16.52-1.02,13.29,12.05,24.64,24.64,24.64,14.18,0,23.62-11.32,24.64-24.64,3.89-50.82-20.52-101.45-58.19-134.79-39.75-35.18-91.69-52.64-144.37-42.83-13.09,2.44-20.52,18.26-17.21,30.31,3.78,13.74,17.18,19.65,30.31,17.21h0Z"/>
  <path d="M524,363.4c37.1,47.76,63.06,104.21,77.04,163.56,3.05,12.96,17.82,20.64,30.31,17.21,13.26-3.64,20.27-17.32,17.21-30.31-15.98-67.82-47.07-130.4-89.72-185.31-8.17-10.52-26.26-8.58-34.85,0-10.38,10.38-8.19,24.3,0,34.85h0Z"/>
  <path d="M608.3,599.25c.91-7.61-.1-.12-.47,1.49-.36,1.56-.77,3.12-1.24,4.65-.47,1.53-1.04,3.01-1.55,4.52-1.38,4.06,2.43-4.84-.74,1.33-1.57,3.06-3.44,5.88-5.31,8.76-3.33,5.16,2.78-2.9-.48.65-1.07,1.17-2.08,2.39-3.17,3.55-2.57,2.72-5.35,5.16-8.18,7.61-4.2,3.62,4.51-3.02-.12.05-1.57,1.04-3.1,2.14-4.7,3.14-2.98,1.87-6.06,3.59-9.22,5.14-1.28.63-6.49,1.81-3,1.43,3.72-.4-2.07.71-3.15,1.08-3.6,1.23-7.26,2.27-10.98,3.11-1.59.36-3.19.61-4.78.95-5.25,1.12,5.07-.39.13.03-3.76.32-7.48.6-11.26.56-1.6-.02-3.2-.07-4.8-.18-1.06-.07-2.12-.15-3.18-.26-2.72-.31-2.11-.22,1.82.28-1.3-1.34-7.27-1.44-9.28-2-2.03-.57-4-1.29-6-1.94-5.16-1.68,4.9,2.54.07.05-3.31-1.71-6.55-3.39-9.63-5.5-4.47-3.04-.73.19-.15-.01-.62.21-4.31-3.89-4.83-4.4-9.22-9.02-25.78-9.88-34.85,0-8.95,9.75-9.84,25.22,0,34.85,29.36,28.73,74.35,35.17,112.36,21.45,18.58-6.7,36.26-17.03,49.66-31.74,15.27-16.77,23.64-36.25,26.32-58.62,1.54-12.85-12.43-25.19-24.64-24.64-14.67.66-22.99,10.88-24.64,24.64h0Z"/>
  <path d="M674.68,543.39c13.44,40.63,53.7,71.63,97.45,69.26,42.56-2.31,81-33.11,91.24-74.78,3.07-12.5-3.99-27.3-17.21-30.31-12.72-2.9-27.02,3.82-30.31,17.21-.48,1.93-.98,3.84-1.6,5.74-.21.66-2.28,5.79-.87,2.61,1.41-3.19-.97,1.83-1.29,2.43-.93,1.75-1.93,3.46-2.99,5.13-.35.55-3.44,5.15-1.49,2.37,1.9-2.72-1.74,2.03-1.83,2.12-2.21,2.49-4.63,4.71-7.05,6.99-4.6,4.33,3.97-2.47-1.26,1.06-1.37.93-2.73,1.86-4.15,2.73-1.41.87-2.84,1.7-4.3,2.47-.82.43-6.79,2.99-1.3.86-3.08,1.2-6.2,2.26-9.41,3.05-1.93.48-3.86.82-5.82,1.19,3.3-.62,2.51-.3-.35-.15-3.4.18-6.72-.07-10.1-.22-3-.13,4.22.97-.45-.16-1.97-.48-3.94-.88-5.89-1.45-1.62-.47-3.19-1.15-4.8-1.58-2.76-.75,3.48,1.84-.65-.26-3.33-1.69-6.58-3.44-9.69-5.51-1.91-1.27-3.37-2.51-.74-.35-1.57-1.29-3.11-2.61-4.59-4-2.46-2.32-4.72-4.82-6.88-7.42,2.17,2.61.95,1.21-.33-.72-.93-1.41-1.82-2.84-2.64-4.31-.99-1.77-1.87-3.58-2.75-5.41,1.84,3.87.24.29-.41-1.68-4.04-12.21-17.2-21.45-30.31-17.21-12.18,3.94-21.55,17.21-17.21,30.31h0Z"/>
  <path d="M241.82,569.4c-38.85,11.3-82.79.87-111.56-29.15-13.52-14.11-22.53-32.02-27.16-52.18-2.42-10.55-3.01-16.56-2.56-29.34.12-3.43.35-6.87.76-10.29-.49,4.13.59-3.18.67-3.64,1.15-5.92,2.76-11.72,4.68-17.44,4.23-12.61-4.88-26.92-17.21-30.31-13.45-3.7-26.06,4.55-30.31,17.21-18.45,54.97-3.83,119.05,36.28,160.84,40.21,41.88,104.02,57.97,159.51,41.83,12.78-3.72,20.77-17.35,17.21-30.31-3.5-12.73-17.49-20.94-30.31-17.21h0Z"/>
  <path d="M261.69,668.81c37.74,38.87,97.5,54.24,149.22,37.77,12.26-3.91,21.42-17.3,17.21-30.31-3.98-12.29-17.16-21.4-30.31-17.21-5.03,1.6-10.14,2.92-15.34,3.85-.61.11-1.22.22-1.83.31-1.87.29-1.22.22,1.95-.22-.52-.33-3.04.33-3.7.39-2.47.22-4.95.37-7.43.44-5.27.15-10.56-.04-15.8-.56-5.33-.53-.23-.71.08.07-.11-.28-3.27-.54-3.68-.61-2.75-.5-5.49-1.1-8.2-1.78-5.14-1.29-10.11-2.98-15.09-4.8-3.58-1.31.07.6.72.34-.48.19-2.88-1.31-3.39-1.55-2.52-1.2-5-2.49-7.43-3.86-2.16-1.22-4.28-2.5-6.37-3.85-1.58-1.02-5.91-3.05-6.86-4.79.65,1.18,3.07,2.52.61.39-.94-.81-1.9-1.6-2.82-2.42-2.33-2.06-4.54-4.23-6.71-6.46-9-9.26-25.94-9.71-34.85,0-9.14,9.96-9.6,24.96,0,34.85h0Z"/>
  <path d="M896.93,500.19c29.79,11.26,63.64,2.26,87.43-17.6,24.64-20.58,32.84-55.39,25.27-85.8-4.12-16.57-13.55-32.81-26.69-43.82-9.87-8.27-25.3-10.4-34.85,0-8.38,9.12-10.55,26.01,0,34.85,2.63,2.21,5,4.6,7.29,7.15,1.64,2,1.26,1.48-1.15-1.56.57.78,1.13,1.58,1.66,2.39.8,1.22,1.56,2.46,2.27,3.73.79,1.4,1.51,4.13,2.62,5.21-.45-1.06-.9-2.13-1.35-3.19.36.91.7,1.82,1.01,2.74,1.12,3.26,1.83,6.55,2.58,9.9,1.11,4.95-.34-5.46-.09-.75.1,1.95.27,3.89.28,5.84,0,1.46-.04,2.92-.13,4.38-.43,6.97.98-3.61,0,.68-.7,3.09-1.35,6.14-2.4,9.14-1.99,5.71,2.28-4.05-.02.17-.82,1.5-1.55,3.03-2.44,4.49-.75,1.24-2.39,2.84-2.79,4.19,2.43-3.07,2.82-3.61,1.18-1.62l-.94,1.08c-2.26,2.51-4.84,4.57-7.29,6.86,5.35-4.97.82-.77-.86.29-1.22.76-2.46,1.49-3.73,2.17-.85.46-6.4,2.62-2.24,1.25,4.3-1.41-1.66.57-2.43.83-3.21,1.07-6.46,1.77-9.76,2.47-4.92,1.04,5.52-.34.85-.14-1.91.08-3.81.24-5.73.23-1.44-.01-2.86-.11-4.29-.17-4.42-.21,6.28,1.27-.54-.08-3.3-.66-6.49-1.63-9.64-2.82-12.08-4.57-27.54,5.06-30.31,17.21-3.2,14.03,4.28,25.42,17.21,30.31h0Z"/>
  <path d="M657.25,264.06c.55-1.87,1.19-3.71,1.92-5.52-.83,1.96-1.66,3.92-2.48,5.89,1.9-4.48,4.35-8.61,7.32-12.47-1.28,1.66-2.57,3.32-3.85,4.99,3.04-3.82,6.47-7.21,10.29-10.24-1.66,1.28-3.32,2.57-4.99,3.85,4.4-3.38,9.16-6.17,14.25-8.38-1.96.83-3.92,1.66-5.89,2.48,5.11-2.12,10.4-3.59,15.89-4.36l-6.55.88c4.83-.6,9.63-.63,14.46-.03-2.18-.29-4.37-.59-6.55-.88,3.22.46,6.36,1.18,9.45,2.19,12.26,3.99,27.45-4.64,30.31-17.21,3.08-13.52-4.08-26.04-17.21-30.31-42.58-13.86-91.45,13.65-103.88,56.01-3.63,12.36,4.38,27.39,17.21,30.31,13.2,3.01,26.43-3.97,30.31-17.21h0Z"/>
  <path d="M728.12,401.52c1.51.52,2.99,1.08,4.45,1.69-1.96-.83-3.92-1.66-5.89-2.48,4.96,2.16,9.56,4.91,13.84,8.21-1.66-1.28-3.32-2.57-4.99-3.85,4.5,3.56,8.49,7.62,12.01,12.15-1.28-1.66-2.57-3.32-3.85-4.99,3.66,4.84,6.68,10.05,9.03,15.63-.83-1.96-1.66-3.92-2.48-5.89,2.15,5.31,3.65,10.79,4.44,16.46-.29-2.18-.59-4.37-.88-6.55.5,4.11.62,8.21.34,12.34-.42,6.04,3.05,13.25,7.22,17.42,4.27,4.27,11.29,7.49,17.42,7.22,14.11-.63,23.69-10.84,24.64-24.64,1.27-18.39-4.39-38.13-14.67-53.39-11.68-17.34-27.72-30.07-47.54-36.86-5.83-2-13.8-.55-18.99,2.48-5.11,2.99-9.99,8.85-11.32,14.73-3.12,13.69,4.14,25.83,17.21,30.31h0Z"/>
  <path d="M420.38,295.66c-27.14-17.29-60.94-15.31-89.19-2.11-12.21,5.71-23.59,14.52-32.07,25-4.84,5.98-9.15,12.04-12.28,19.08-4.17,9.39-6.18,17.67-7.5,27.88-.75,5.79,3.3,13.5,7.22,17.42,4.27,4.27,11.29,7.49,17.42,7.22,6.37-.29,12.98-2.38,17.42-7.22,4.73-5.15,6.32-10.55,7.22-17.42-1.18,9.1.35-.39.99-2.56.4-1.38.9-2.71,1.36-4.07,1.37-4.04-2.69,5.42-.57,1.4,1.14-2.16,2.23-4.33,3.53-6.39.65-1.03,1.37-2.02,2.05-3.03,2.51-3.78-3.68,4.3-.86,1.12,1.78-2,3.52-3.98,5.46-5.82,1.04-.99,2.11-1.96,3.22-2.89,1.64-1.39,4.92-2.63-1.1.78,4.53-2.56,8.68-5.57,13.37-7.93,4.7-2.37-3.71,1.27-1.3.52,1.38-.43,2.72-1.03,4.1-1.48,2.36-.78,4.76-1.45,7.18-1.99,1.21-.27,2.43-.48,3.64-.73,4.58-.95-6.02.54-1.66.2,2.66-.21,5.3-.41,7.97-.38,1.22.01,2.45.06,3.67.14,2.36.16,6.46,1.59-1.09-.29,2.36.59,4.79.88,7.14,1.54,1.17.33,2.34.69,3.49,1.1,4.13,1.44.43.52-1.33-.67,2.35,1.59,5.2,2.63,7.63,4.17,10.89,6.94,27.66,2.62,33.71-8.84,6.44-12.19,2.78-26.31-8.84-33.71h0Z"/>
  <path d="M445.22,438.93c-70.3,2.62-124.86,74.13-109.01,142.62,2.91,12.57,18.01,21.19,30.31,17.21,13.14-4.25,20.33-16.84,17.21-30.31-.34-1.46-.6-2.93-.93-4.39-1.09-4.81.34,6.12-.02-.07-.19-3.21-.4-6.37-.31-9.58.04-1.47.12-2.94.24-4.41l.13-1.47c.3-2.68.19-1.95-.33,2.17,1-2.63,1.06-5.91,1.77-8.67.73-2.87,1.61-5.7,2.62-8.48.34-.93.69-1.86,1.05-2.77-.45,1.05-.9,2.09-1.35,3.14.95-1.31,1.47-3.26,2.2-4.72,1.44-2.89,3.02-5.72,4.73-8.46,1.4-2.24,4.19-4.94,5.07-7.39-2.19,2.81-2.71,3.49-1.55,2.05.47-.58.94-1.16,1.43-1.73.97-1.14,1.96-2.25,2.98-3.35,2.03-2.19,4.16-4.28,6.37-6.28,1.29-1.16,2.64-2.25,3.96-3.38,1.76-1.51-4.84,3.31-.26.26,2.68-1.78,5.3-3.58,8.11-5.17,2.36-1.34,5.82-2.3,7.9-3.98-3.41,1.41-4.24,1.76-2.48,1.07.68-.27,1.37-.53,2.07-.78,1.38-.5,2.78-.96,4.19-1.39,2.83-.85,5.7-1.55,8.6-2.09.97-.18,1.95-.34,2.92-.48-3.85.49-4.81.64-2.86.44,1.74-.09,3.48-.26,5.22-.33,12.87-.48,25.25-10.99,24.64-24.64-.58-12.94-10.84-25.15-24.64-24.64h0Z"/>
  <path d="M622.54,695.57c5.65,9.32,10.84,18.89,15.44,28.77.92,1.97,1.8,3.96,2.7,5.95,1.13,2.62,1.16,2.66.08.12.55,1.34,1.1,2.69,1.64,4.04,1.87,4.72,3.62,9.5,5.25,14.31,3.25,9.63,6.01,19.43,8.25,29.34,1.12,4.96,2.11,9.94,2.97,14.95.49,2.86.94,5.73,1.35,8.61-.84-5.94.33,3.23.44,4.26,1.36,12.78,10.36,25.28,24.64,24.64,12.18-.55,26.1-10.91,24.64-24.64-5.11-47.91-19.78-93.92-44.83-135.23-6.68-11.02-22.4-16.13-33.71-8.84-11.07,7.14-15.99,21.92-8.84,33.71h0Z"/>
  <path d="M765.08,575.45c7.21,63.83,29.98,125.05,68.84,176.48,8.01,10.6,21.26,16.12,33.71,8.84,10.44-6.11,16.91-23.03,8.84-33.71-34.05-45.07-56.12-98.54-62.11-151.6-1.44-12.76-10.3-25.28-24.64-24.64-12.11.54-26.19,10.92-24.64,24.64h0Z"/>
</svg>