<?xml version="1.0" encoding="UTF-8"?>
<svg id="Capa_1" data-name="Capa 1" xmlns="http://www.w3.org/2000/svg" viewBox="0 0 997.96 1138.68">
  <defs>
    <style>
      .cls-1 {
        fill: #80c5d5;
        opacity: .74;
      }
    </style>
  </defs>
  <path class="cls-1" d="M200.34,124.13S10.56,668.57,59.91,807.87c65.04,36.22,221.18,111.59,430.51,101.44,251.69-12.2,420.74-140.29,475.61-185.76-88.33-226.37-176.66-452.74-264.99-679.12l-76.64,390.93-253.78-.83L200.34,124.13Z"/>
  <path d="M99.27,606.92c28.77-149.85,69.09-297.13,120.67-440.74-15.01,1.96-30.02,3.92-45.04,5.89,64.87,98.87,121.76,202.56,170.29,310.39,3.28,7.3,13.46,12.73,21.28,12.2,84.57-5.66,169.24-5.39,253.78.83,14.51,1.07,22.99-12.26,24.64-24.64,18.93-142.14,37.86-284.29,56.79-426.43-15.31,4.15-30.61,8.29-45.92,12.44,98.48,173.48,178.14,356.68,237.72,547.06,9.44,30.17,57.03,17.29,47.52-13.1-60.81-194.3-142.18-381.78-242.69-558.83-13.28-23.4-42.94-9.93-45.92,12.44-18.93,142.14-37.86,284.29-56.79,426.43,8.21-8.21,16.43-16.43,24.64-24.64-84.53-6.21-169.21-6.49-253.78-.83,7.09,4.07,14.18,8.14,21.28,12.2-48.53-107.83-105.42-211.52-170.29-310.39-12.08-18.42-37.81-14.23-45.04,5.89-51.58,143.61-91.91,290.89-120.67,440.74-5.95,30.99,41.54,44.26,47.52,13.1h0Z"/>
  <path d="M359.54,755.83c21.98,36.34,43.96,72.68,65.94,109.02,10.2,16.86,41.02,15.83,45.04-5.89,8.64-46.7,21.68-92.47,40.24-136.23h-42.55c21.84,47.39,49.87,90.62,83.28,130.65,13.3,15.94,34.8,4.32,41.18-10.87,20.15-47.93,40.29-95.86,60.44-143.78-13.73,3.62-27.46,7.25-41.18,10.87,39.07,44.26,78.14,88.52,117.2,132.77,11.89,13.47,37.57,6.84,41.18-10.87,8.87-43.53,17.75-87.07,26.62-130.6-13.73,3.62-27.46,7.25-41.18,10.87,36.16,42.26,72.33,84.53,108.49,126.79,12.08,14.12,36.99,6.26,41.18-10.87,10.63-43.41,16.23-87.58,16.65-132.27-15.31,4.15-30.61,8.29-45.92,12.44,17.63,29.98,35.26,59.96,52.88,89.94,11.61,19.75,48.43,12.87,45.92-12.44-6.85-68.97-32.16-131.04-75.2-185.32-19.7-24.84-54.36,10.24-34.85,34.85,34.19,43.12,55.33,95.75,60.77,150.47,15.31-4.15,30.61-8.29,45.92-12.44-17.63-29.98-35.26-59.96-52.88-89.94-12.45-21.17-45.69-11.96-45.92,12.44-.38,40.45-5.27,79.88-14.89,119.17,13.73-3.62,27.46-7.25,41.18-10.87-36.16-42.26-72.33-84.53-108.49-126.79-11.74-13.72-37.61-6.64-41.18,10.87-8.87,43.53-17.75,87.07-26.62,130.6,13.73-3.62,27.46-7.25,41.18-10.87-39.07-44.26-78.14-88.52-117.2-132.77-13.66-15.47-34.64-4.7-41.18,10.87-20.15,47.93-40.29,95.86-60.44,143.78,13.73-3.62,27.46-7.25,41.18-10.87-30.66-36.73-55.57-77.25-75.58-120.68-7.26-15.76-35.55-16.51-42.55,0-20.31,47.88-35.74,96.81-45.21,148,15.01-1.96,30.02-3.92,45.04-5.89-21.98-36.34-43.96-72.68-65.94-109.02-16.39-27.1-59.03-2.36-42.55,24.87h0Z"/>
  <path d="M44.73,645.78c-16.83,64.46-21.74,131.44-13.62,197.59,2.78,22.67,32.53,35.52,45.92,12.44,19.34-33.33,44.51-63.13,75.22-86.58-12.36-7.09-24.72-14.18-37.08-21.28.62,45.8,14.55,90.46,41.28,127.77,10.92,15.24,31.85,16.39,42.55,0,23.45-35.89,46.9-71.78,70.35-107.67h-42.55c27.3,35.95,54.6,71.89,81.91,107.84,12.38,16.29,38.58,16.08,45.04-5.89,12.58-42.81,25.16-85.62,37.74-128.43,8.96-30.49-38.58-43.51-47.52-13.1-12.58,42.81-25.16,85.62-37.74,128.43,15.01-1.96,30.02-3.92,45.04-5.89-27.3-35.95-54.6-71.89-81.91-107.84-11.26-14.82-31.63-16.72-42.55,0-23.45,35.89-46.9,71.78-70.35,107.67h42.55c-21.9-30.57-34.04-65.2-34.56-102.9-.23-16.84-21.52-33.15-37.08-21.28-37.65,28.74-69.08,63.19-92.9,104.26,15.31,4.15,30.61,8.29,45.92,12.44-7.62-62.02-3.93-124.01,11.86-184.49,8.02-30.71-39.5-43.81-47.52-13.1h0Z"/>
  <path d="M204.84,529.79c86.6,42.96,173.19,85.92,259.79,128.88,1.96-15.01,3.92-30.02,5.89-45.04-32.34,5.39-64.92,8.87-97.67,10.47-32.55,1.6-67.17,3.49-99.56-1.04-49.38-6.91-44.44-66.27-40.57-103.85,1.36-13.26-12.3-24.64-24.64-24.64-14.46,0-23.27,11.35-24.64,24.64-5.83,56.65.3,127.97,63.89,148.4,17.42,5.6,36.6,5.82,54.73,6.39,20.1.63,40.21.57,60.31-.17,40.65-1.5,81.13-6,121.25-12.69,20.68-3.45,24.08-36.01,5.89-45.04-86.6-42.96-173.19-85.92-259.79-128.88-28.32-14.05-53.32,28.44-24.87,42.55h0Z"/>
  <path d="M595.45,607.9c47.28-40.11,94.57-80.22,141.85-120.34-13.73-3.62-27.46-7.25-41.18-10.87,4.11,11.27,7.82,22.68,10.75,34.31,1.59,6.31,2.97,12.67,4.04,19.09.27,1.59.51,3.18.74,4.78-.36-2.58-.36-2.38,0,.59.18,2.36.44,4.72.57,7.08.81,14.03.65,18.53-2.35,29.16-.29,1.01-3.4,9.34-1.12,4.15-1.13,2.58-2.46,5.09-3.93,7.5-.74,1.21-1.52,2.39-2.33,3.55,1.72-2.13,1.68-2.11-.13.07-1.79,1.85-3.54,3.69-5.43,5.45-1.3,1.1-1.1,1.01.59-.27-1.32.98-2.67,1.91-4.06,2.78-2.7,1.7-5.56,3.31-8.52,4.53,4.07-1.68-4.59,1.28-5.43,1.51-2.73.75-5.5,1.35-8.28,1.87-1.2.23-2.41.44-3.62.62,2.48-.32,2.2-.3-.82.05-3.34.28-6.67.58-10.02.76-6.38.35-12.76.47-19.15.6-28.02.58-56.65,2.1-81.32,16.89-11.4,6.84-15.61,22.14-8.84,33.71,6.68,11.42,22.26,15.71,33.71,8.84,2.12-1.27,4.26-2.45,6.46-3.57,3.75-1.89-.89-.03,3.14-1.18,5.55-1.57,10.99-3.04,16.7-3.95-3.79.6,2.26-.21,3.38-.32,2.52-.23,5.05-.4,7.58-.54,5.54-.31,11.08-.44,16.62-.56,22.23-.47,45.69-.52,66.67-8.77,21.74-8.55,40.39-24.03,50-45.69,8.98-20.22,11.46-42.34,9.21-64.28-2.53-24.73-8.8-48.56-17.3-71.87-6.61-18.14-26.46-23.36-41.18-10.87-47.28,40.11-94.57,80.22-141.85,120.34-10.15,8.61-8.87,25.98,0,34.85,10.06,10.06,24.67,8.64,34.85,0h0Z"/>
  <path d="M61.53,907.36c-3.42,79.94,55.04,144.62,125.68,173.45,81.33,33.2,178.68,31.32,264.62,22.71,90.64-9.08,179.11-31.42,262.93-67.1,69.87-29.74,140.39-70.92,165.51-147.08,9.96-30.19-37.62-43.13-47.52-13.1-21.15,64.13-91.27,96.82-149.38,120.28-71.09,28.7-146.41,48.35-222.65,56.78-72.19,7.98-150.72,10.92-221.66-7.2-65.62-16.76-131.46-64.05-128.26-138.74,1.36-31.71-47.93-31.65-49.28,0h0Z"/>
</svg>