<?xml version="1.0" encoding="UTF-8"?>
<svg id="Capa_1" data-name="Capa 1" xmlns="http://www.w3.org/2000/svg" viewBox="0 0 1454.74 956.59">
  <defs>
    <style>
      .cls-1 {
        fill: #70b52c;
        opacity: .87;
      }
    </style>
  </defs>
  <path class="cls-1" d="M245.16,94.28c4.36-4.36,137.58-126.33,248.12-10.16,110.54,116.16-69.52,559.65-69.52,559.65,0,0,44.98,32.79,55.16,29.89,10.18-2.9,218.35-122.14,218.35-122.14l127.31.64,203.24,91.62,153.15-128.03,135.8,4.23c65.95,52.27,79.48,94.5,79.23,123.8-.31,37.83-23.57,53.35-17.32,98.69,5.15,37.31,23.65,46.71,28.2,84.59,4.02,33.46-6.1,62.04-14.55,80.04-42.65-15.87-85.3-31.75-127.95-47.62-18.63-33.41-37.27-66.81-55.9-100.22-43.79,20.58-87.58,41.17-131.37,61.75-11.05,10.29-27.67,22.86-50.34,31.2-62.03,22.82-119-4.6-131.67-11.08-28.57-31.14-57.13-62.27-85.7-93.41l-127.17-44.2-169.42,140.56s-189.48,146.81-236.55-32.86c-47.07-179.67-47.86-276.7-47.86-276.7l16.77-440.23Z"/>
  <path d="M1073.47,850.56c33.06-15.97,55-41.78,84.01-62.97,9.5-6.94,24.14-19.08,34.72-9.4,7.59,6.95,10.21,33.69,15.1,44.17,23.22,49.73,74.33,93.56,127.46,108.05,55.89,15.23,99.41-19.41,105.17-76.32,3.38-33.36-11.19-56.86-29.68-82.91-21.53-30.32-19.95-60.64-13.69-95.68,5.2-29.12,10.51-59,2.07-88.09-8.46-29.15-29.11-54.15-52.56-72.76-46.01-36.52-111.1-52.49-165.94-26.41-30.53,14.51-51.99,40.89-71.59,67.54-19.94,27.12-40.52,60.21-74.69,70.59-35.39,10.75-60.9-25.24-85.95-44.22-25.97-19.68-55.09-34.58-85.91-45.09-69.32-23.64-148.5-22.79-216.58,4.67-70.43,28.41-130.79,99.91-210.35,100.31,7.92,10.4,15.84,20.79,23.76,31.19,23.24-125.49,44.07-251.75,70.25-376.64,19.21-91.64,24.83-229.11-81.9-266.52-29.99-10.51-42.88,37.08-13.1,47.52,53.39,18.71,55.92,81.66,55.6,129.67-.21,30.43-4.83,59.42-10.97,89.02-25.03,120.67-44.94,242.65-67.39,363.83-2.86,15.45,6.65,31.28,23.76,31.19,65.33-.33,116.81-38.19,169.54-72,55.18-35.39,113.47-54.28,179.56-48.72,65.67,5.52,115.83,35.85,165.08,76.99,24.45,20.42,51.42,34.08,84.03,29.23,29.92-4.45,56.65-22.45,77.31-43.92,39.85-41.43,64.41-110.99,132.19-108.36,56.52,2.19,115.18,48.83,110.73,108.3-2.09,27.89-10.94,54.92-11.14,83.06-.22,30.34,9.43,58.46,27.32,82.83,16.74,22.79,32.16,50.62,12.34,77.3-12.5,16.83-36.15,7.7-52,.24-26.61-12.52-51.19-32.96-67.92-57.17-17.67-25.55-16.59-60.53-40.86-81.39-24.64-21.17-57.66-12.92-82.48,3.09-32.09,20.7-55.28,50.37-90.18,67.23-28.55,13.79-3.59,56.3,24.87,42.55h0Z"/>
  <path d="M375.26,17.95c-45.93-19.42-95.33-2.42-124.51,37.55-33.73,46.21-36.79,110.1-42.83,165-14.31,130.11-12.75,261.79,4.11,391.58,8.11,62.39,18.66,125.06,34.77,185.93,12.39,46.85,33.31,96.09,78.38,119.96,104,55.07,198.2-52.13,264.74-116.38,39.69-38.32,96.46-84.68,154.82-58.63,52.6,23.48,83.79,79.51,135.42,106.16,28.14,14.52,53.1-27.99,24.87-42.55-41.48-21.41-69.26-59.36-105.85-87.33-35.28-26.97-76.96-39.08-120.91-29.65-97.1,20.84-145.06,119.54-224.5,168.57-39.14,24.17-91.55,39.12-126.49-.51-30.52-34.62-37.6-88.87-46.62-132.35-24.26-116.86-35.11-236.3-32.98-355.62,1.16-64.73,5.96-129.53,15.06-193.63,3.94-27.77,7.84-57.71,21.91-82.47,12.05-21.22,39.56-44.14,65.72-33.08,28.87,12.21,54.02-30.23,24.87-42.55h0Z"/>
  <path d="M227.46,394.75c85.6,28.6,175.57,43.37,265.82,44.04,31.72.24,31.75-49.04,0-49.28-86.15-.64-171.01-14.98-252.72-42.28-30.15-10.07-43.08,37.5-13.1,47.52h0Z"/>
  <path d="M213.47,523.35c77.97-3.87,155.75,2.59,231.89,19.86,30.88,7.01,44.07-40.5,13.1-47.52-80.27-18.21-162.77-25.7-244.99-21.62-31.56,1.57-31.75,50.86,0,49.28h0Z"/>
  <path d="M494.6,663.01c11.16,48.14,13.75,97.57,7.98,148.2-1.47,12.85,12.38,25.19,24.64,24.64,14.6-.65,23.07-10.87,24.64-24.64,6.15-53.87,2.51-108.5-9.74-161.3-2.91-12.57-18.01-21.19-30.31-17.21-13.13,4.25-20.33,16.85-17.21,30.31h0Z"/>
  <path d="M596.86,584.02v119.48c0,12.89,11.33,25.24,24.64,24.64,13.35-.6,24.64-10.83,24.64-24.64v-119.48c0-12.89-11.33-25.24-24.64-24.64-13.35.6-24.64,10.83-24.64,24.64h0Z"/>
  <path d="M863.3,563.19c-27.97,63.56-65.43,122.55-111.85,174.21-8.89,9.89-9.76,25.08,0,34.85,9.04,9.04,25.92,9.94,34.85,0,49.21-54.76,89.89-116.78,119.56-184.19,5.36-12.17,3.56-26.46-8.84-33.71-10.47-6.12-28.32-3.4-33.71,8.84h0Z"/>
  <path d="M963.54,621.79c-2.15,5.31-4.88,11.53-8.36,18.78-3.69,7.69-7.63,15.26-11.8,22.71-8.12,14.5-17.13,28.5-26.94,41.91-4.65,6.35-6.98,9.31-12.77,16.22-5.19,6.19-10.57,12.24-16.12,18.11-11.72,12.42-24.24,24.03-37.4,34.91-10.26,8.48-8.78,26.06,0,34.85,10.16,10.16,24.56,8.51,34.85,0,56.25-46.49,98.8-106.9,126.07-174.38,4.84-11.98-5.26-27.59-17.21-30.31-14.28-3.25-25.12,4.38-30.31,17.21h0Z"/>
  <path d="M1130.31,558.69c12.81,52.89,9.44,107.7-8.85,159.41-4.44,12.55,5.03,26.96,17.21,30.31,13.62,3.74,25.86-4.62,30.31-17.21,21.03-59.44,23.67-124.42,8.85-185.61-3.13-12.94-17.77-20.66-30.31-17.21-13.19,3.63-20.35,17.33-17.21,30.31h0Z"/>
  <path d="M1256.23,490.76c.25,85.94-35.8,168.65-98.48,227.35-23.2,21.73,11.7,56.52,34.85,34.85,71.84-67.28,113.2-163.84,112.92-262.2-.09-31.71-49.37-31.77-49.28,0h0Z"/>
  <path d="M279.21,196.43v5.83c-.13,3.39.58,6.56,2.12,9.49.99,3.05,2.69,5.7,5.09,7.93,2.23,2.4,4.88,4.1,7.93,5.09,2.94,1.54,6.1,2.25,9.49,2.12,2.18-.29,4.37-.59,6.55-.88,4.17-1.17,7.8-3.28,10.87-6.34,1.28-1.66,2.57-3.32,3.85-4.99,2.23-3.84,3.35-7.99,3.36-12.44v-5.83c.13-3.39-.58-6.56-2.12-9.49-.99-3.05-2.69-5.7-5.09-7.93-2.23-2.4-4.88-4.1-7.93-5.09-2.94-1.54-6.1-2.25-9.49-2.12-2.18.29-4.37.59-6.55.88-4.17,1.17-7.8,3.28-10.87,6.34-1.28,1.66-2.57,3.32-3.85,4.99-2.23,3.84-3.35,7.99-3.36,12.44h0Z"/>
  <path d="M378.74,226.35c.97,1.94,1.94,3.89,2.91,5.83,1.55,2.87,3.66,5.18,6.35,6.91,2.38,2.18,5.17,3.65,8.38,4.41,3.28,1.03,6.55,1.17,9.83.44,3.28-.15,6.33-1.12,9.16-2.92,1.66-1.28,3.32-2.57,4.99-3.85,3.05-3.07,5.17-6.7,6.34-10.87.29-2.18.59-4.37.88-6.55-.01-4.45-1.14-8.59-3.36-12.44-.97-1.94-1.94-3.89-2.91-5.83-1.55-2.87-3.66-5.18-6.35-6.91-2.38-2.18-5.17-3.65-8.38-4.41-3.28-1.03-6.55-1.17-9.83-.44-3.28.15-6.33,1.12-9.16,2.92-1.66,1.28-3.32,2.57-4.99,3.85-3.05,3.07-5.17,6.7-6.34,10.87l-.88,6.55c.01,4.45,1.14,8.59,3.36,12.44h0Z"/>
  <path d="M34.47,390.77c22.32,9.76,44.64,19.53,66.96,29.29,6.29,2.75,12.08,4.39,18.99,2.48,5.72-1.57,11.91-5.99,14.73-11.32,3.02-5.72,4.54-12.65,2.48-18.99-1.84-5.69-5.59-12.22-11.32-14.73-22.32-9.76-44.64-19.53-66.96-29.29-6.29-2.75-12.08-4.39-18.99-2.48-5.72,1.57-11.91,5.99-14.73,11.32-3.02,5.72-4.54,12.65-2.48,18.99,1.84,5.69,5.59,12.22,11.32,14.73h0Z"/>
  <path d="M49.24,476.2c-.05,1.23-.15,2.44-.31,3.66.29-2.18.59-4.37.88-6.55-.47,3.3-1.36,6.48-2.62,9.56.83-1.96,1.66-3.92,2.48-5.89-1.44,3.39-3.31,6.55-5.56,9.47,1.28-1.66,2.57-3.32,3.85-4.99-2.18,2.75-4.66,5.22-7.43,7.37,1.66-1.28,3.32-2.57,4.99-3.85-2.66,2.01-5.51,3.68-8.57,4.98,1.96-.83,3.92-1.66,5.89-2.48-1.46.6-2.94,1.11-4.46,1.53-5.98,1.66-11.59,5.96-14.73,11.32-1.8,2.83-2.78,5.88-2.92,9.16-.73,3.28-.59,6.55.44,9.83,1.93,5.96,5.62,11.71,11.32,14.73,5.86,3.1,12.47,4.3,18.99,2.48,4.06-1.13,7.98-2.87,11.78-4.65,1.9-.89,3.71-1.93,5.44-3.12,5.19-3.55,10.17-7.52,14.11-12.45,2.49-3.11,5.08-6.3,7.08-9.77,2.1-3.63,3.7-7.67,5.2-11.55.76-1.95,1.36-3.96,1.79-6.01.88-4.18,1.46-8.51,1.63-12.79.25-6.16-2.92-13.13-7.22-17.42-4.27-4.27-11.29-7.49-17.42-7.22s-12.98,2.38-17.42,7.22c-4.52,4.93-6.95,10.66-7.22,17.42h0Z"/>
  <path d="M672.62,374.2c-.97,20.4-1.94,40.8-2.91,61.2-.61,12.89,11.77,25.22,24.64,24.64,13.88-.62,23.98-10.83,24.64-24.64.97-20.4,1.94-40.8,2.91-61.2.61-12.89-11.77-25.22-24.64-24.64-13.88.62-23.98,10.83-24.64,24.64h0Z"/>
  <path d="M792.4,325.7c-15.92,24.03-31.84,48.07-47.76,72.1-7.13,10.77-2.47,27.73,8.84,33.71,12.36,6.53,26.1,2.65,33.71-8.84,15.92-24.03,31.84-48.07,47.76-72.1,7.13-10.77,2.47-27.73-8.84-33.71-12.36-6.53-26.1-2.65-33.71,8.84h0Z"/>
</svg>