<?xml version="1.0" encoding="UTF-8"?>
<svg id="Capa_1" data-name="Capa 1" xmlns="http://www.w3.org/2000/svg" viewBox="0 0 197.6 222.99">
  <defs>
    <style>
      .cls-1 {
        opacity: .87;
      }

      .cls-2 {
        fill: #e21b38;
      }

      .cls-3 {
        opacity: .74;
      }

      .cls-4 {
        fill: #f7a831;
      }

      .cls-5 {
        fill: #1d1d1b;
      }

      .cls-6 {
        fill: #fff;
      }

      .cls-7 {
        fill: #ac559c;
      }

      .cls-8 {
        fill: #80c6d6;
      }

      .cls-9 {
        opacity: .86;
      }

      .cls-10 {
        fill: #70b62c;
      }

      .cls-11 {
        opacity: .83;
      }
    </style>
  </defs>
  <g class="cls-11">
    <path class="cls-2" d="M32.44,8.12c3.5,9.1,8.17,12.68,10.78,14.18,2.99,1.73,8.08,3.51,8.09,3.51,0,0,0,0,0,0,0,0,0-.01,0-.01,0,0-2.52,5.97-5.5,9.61-1.67,2.03-4.49,4.57-9.49,6.38-1.29-11.22-2.58-22.44-3.88-33.66Z"/>
  </g>
  <g class="cls-11">
    <path class="cls-2" d="M142.78,9.53c-2.48,6.81-5.82,10.34-8.07,12.19-1.6,1.31-6.18,4.64-6.61,4.33,0,0,0,0,0,0,0,0,0-.01,0-.01,0,0,.02.15.02.15.46,3.01,5.85,6.28,5.85,6.28,3.63,2.21,6.77,4.06,9.72,5.75-.3-9.56-.6-19.12-.91-28.69Z"/>
  </g>
  <g class="cls-3">
    <path class="cls-8" d="M151.2,66.54c.15,1.42,1.98,21.97-10.84,35.3-5.13,5.33-10.76,7.6-19.24,11.02-11.52,4.64-21.86,5.89-28.8,6.22-8.66.4-22.28,1.03-36.65-6.48-4.94-2.58-10.94-5.81-15.71-12.79,0,0-6.93-9.44-6.47-23.26.83-24.65,24.74-58.78,58.83-59.34,29.15-.48,56.23,23.74,58.87,49.34Z"/>
  </g>
  <g class="cls-9">
    <path class="cls-7" d="M44.45,41.57c-1.85-.51-3.71.75-4.76,1.5-5.21,3.74-25.39,18.2-20.89,29.04.49,1.18,1.59,3.07,4.43,4.84-8.31,9.86-9.41,20.84-5.17,25.03,4.69,4.64,16.03,1.07,22.45-4.35,6.29-5.32,7.81-12.36,9.66-20.95,2.31-10.71.75-17.94-1.16-26.85-.76-3.55-1.89-7.51-4.55-8.25Z"/>
  </g>
  <g class="cls-9">
    <path class="cls-4" d="M139.35,42.48c1.85-.51,3.71.75,4.76,1.5,5.21,3.74,25.39,18.2,20.89,29.04-.49,1.18-1.59,3.07-4.43,4.84,8.31,9.86,9.41,20.84,5.17,25.03-4.69,4.64-16.03,1.07-22.45-4.35-6.29-5.32-7.81-12.36-9.66-20.95-2.31-10.71-.75-17.94,1.16-26.85.76-3.55,1.89-7.51,4.55-8.25Z"/>
  </g>
  <g>
    <path class="cls-6" d="M55.37,63.12s-3.07,4.2-3.11,10.96c0,.89.04,1.8.33,2.65.34.97.99,1.81,1.72,2.54,4.76,4.76,12.39,5.08,19,3.82,4.54-.87,9.5-2.81,11.21-7.1,1.27-3.18.37-6.82-1.11-9.91-.83-1.73-2.79-6.4-8.03-8.99-1.22-.6-6.59-3.06-12.44-.74-4.27,1.69-6.4,4.97-7.57,6.77Z"/>
    <path class="cls-5" d="M54.31,62.5c-1.19,1.66-1.96,3.74-2.49,5.69-.96,3.58-1.61,8.12.92,11.18,5.04,6.1,14.21,6.28,21.33,4.82,3.49-.72,7.24-2.05,9.69-4.76,2.66-2.94,3.05-6.89,2-10.6-1.65-5.82-5.52-11.19-11.27-13.43-3.96-1.55-8.43-1.68-12.37,0-3.41,1.45-5.83,4.08-7.82,7.13-.86,1.32,1.26,2.55,2.11,1.23,1.41-2.17,3.04-4.13,5.31-5.44,3.18-1.85,6.99-2.09,10.49-1.1,4.75,1.35,7.92,4.81,9.98,9.16,1.49,3.14,2.61,6.99.68,10.2-1.61,2.7-4.78,4.06-7.68,4.85-5.85,1.59-13.27,1.97-18.46-1.68-1.81-1.27-3.15-2.82-3.26-5.11-.09-1.93.2-3.92.7-5.78.48-1.77,1.16-3.6,2.24-5.1.92-1.28-1.2-2.5-2.11-1.23Z"/>
  </g>
  <g>
    <path class="cls-6" d="M108.41,63.12s-3.07,4.2-3.11,10.96c0,.89.04,1.8.33,2.65.34.97.99,1.81,1.72,2.54,4.76,4.76,12.39,5.08,19,3.82,4.54-.87,9.5-2.81,11.21-7.1,1.27-3.18.37-6.82-1.11-9.91-.83-1.73-2.79-6.4-8.03-8.99-1.22-.6-6.59-3.06-12.44-.74-4.27,1.69-6.4,4.97-7.57,6.77Z"/>
    <path class="cls-5" d="M107.35,62.5c-1.19,1.66-1.96,3.74-2.49,5.69-.96,3.58-1.61,8.12.92,11.18,5.04,6.1,14.21,6.28,21.33,4.82,3.49-.72,7.24-2.05,9.69-4.76,2.66-2.94,3.05-6.89,2-10.6-1.65-5.82-5.52-11.19-11.27-13.43-3.96-1.55-8.43-1.68-12.37,0-3.41,1.45-5.83,4.08-7.82,7.13-.86,1.32,1.26,2.55,2.11,1.23,1.41-2.17,3.04-4.13,5.31-5.44,3.18-1.85,6.99-2.09,10.49-1.1,4.75,1.35,7.92,4.81,9.97,9.16,1.49,3.14,2.61,6.99.68,10.2-1.61,2.7-4.78,4.06-7.68,4.85-5.85,1.59-13.27,1.97-18.46-1.68-1.81-1.27-3.15-2.82-3.26-5.11-.09-1.93.2-3.92.7-5.78.48-1.77,1.16-3.6,2.24-5.1.92-1.28-1.2-2.5-2.11-1.23Z"/>
  </g>
  <path class="cls-5" d="M62.48,65.8c1.57.61,3.14,1.23,4.71,1.84-3.42.26-6.03,2.05-6.48,4.25-.16.75-.13,1.88.44,2.89.63,1.13,1.87,1.76,3.08,2.25,3.27,1.31,7.13,1.97,10.21.27,1.85-1.02,3.2-2.81,3.91-4.8.91-2.56.17-4.78-.06-5.51-.25-.77-.88-2.66-2.76-4.16-.78-.63-2.21-1.53-4.16-1.73-1.85-.19-3.24.34-3.99.63-2.72,1.07-4.25,3.1-4.88,4.06Z"/>
  <path class="cls-5" d="M36.9,48.53c-6.82,3.16-12.49,8.77-15.7,15.58-1.37,2.9-3.47,7.48-.61,10.17s7.96,1.95,11.06.23c1.38-.76.14-2.88-1.23-2.11-1.49.83-3.13,1.24-4.84,1.15-1.47-.08-3.55-.46-3.91-2.16-.3-1.45.43-3.12.95-4.45.58-1.47,1.29-2.89,2.1-4.25,3.14-5.28,7.85-9.47,13.41-12.05,1.43-.66.19-2.77-1.23-2.11h0Z"/>
  <path class="cls-5" d="M39.39,101.51c26.32,16.09,59.8,23.95,88.78,10.13,6.14-2.93,11.84-6.67,17.11-10.95,1.22-.99-.52-2.71-1.73-1.73-10.51,8.53-23,14.63-36.43,16.73-13.19,2.06-27.07.05-39.73-3.92-9.42-2.95-18.35-7.22-26.77-12.37-1.35-.82-2.58,1.29-1.23,2.11h0Z"/>
  <path class="cls-5" d="M44.78,44.25c8.69-12.69,24.09-16.31,38.41-18.44,14.21-2.12,28.18-.47,41.05,6.15,6.96,3.58,13.19,8.35,18.59,14.01,1.09,1.14,2.81-.59,1.73-1.73-9.95-10.45-22.94-17.95-37.15-20.71-7.38-1.43-14.8-1.44-22.24-.46-8.29,1.09-16.75,2.53-24.51,5.76-7.22,3-13.55,7.69-17.99,14.17-.89,1.3,1.23,2.53,2.11,1.23h0Z"/>
  <g class="cls-1">
    <path class="cls-10" d="M46.36,123.65c.95,6.82-4.5,11.53-5.74,17.8-1.39,7.04,1.29,13.54-.41,21.04-1.2,5.3-2.79,12.35-5.91,13.01-1.56.33-3.09-.21-3.09-.21-.89-.32-1.66-.95-2.38-1.6-4.23-3.78-6.67-10.19-9.79-14.85-5.65-8.46-12.03-4.41-10.27,5.53,1.76,9.97,25.26,33.21,33.83,18.86,4.1-6.86,2.85-16.9,3.17-24.55.25-6.02-1.89-14.46,1.19-19.91,1.2-2.12,2.75-5.41,4.76-9.84"/>
    <path class="cls-5" d="M45.14,123.65c.47,4.35-1.6,7.86-3.48,11.61-1.79,3.59-2.71,7.15-2.67,11.18.05,4.71,1.02,9.4.34,14.1-.56,3.84-1.48,8.44-3.42,11.84-4.69,8.23-13.45-10.52-15.42-13.58-2.46-3.82-8.58-8.99-11.99-3.07-2.62,4.54-1.01,10.45,1.48,14.66,2.77,4.68,6.61,8.87,10.85,12.27,3.8,3.05,8.41,6.01,13.42,6.31,5.01.31,8.62-2.89,10.5-7.32,1.69-4,2.07-8.42,2.17-12.71.1-4.42.25-8.93.04-13.34-.22-4.57-1.16-9.53.16-14.01.53-1.8,1.57-3.41,2.4-5.09,1.14-2.3,2.2-4.63,3.26-6.96.65-1.42-1.46-2.67-2.11-1.23-1.48,3.25-3,6.47-4.65,9.63s-2.02,6.36-1.96,9.8c.13,7.59.7,15.12.36,22.73-.24,5.39-1.22,14.54-7.81,15.92-4.63.97-9.53-2.05-13.07-4.69-4.28-3.2-8.14-7.26-10.99-11.79-1.06-1.68-2.06-3.48-2.5-5.43-.54-2.37-.99-7.55,1.87-8.82,3.21-1.42,6.17,3.84,7.4,5.93,1.98,3.37,3.66,6.92,6.03,10.05,1.66,2.18,3.82,4.64,6.67,5.08s4.66-.71,6-3.09c1.9-3.37,2.72-7.51,3.47-11.26.95-4.77.23-9.48,0-14.27s.86-8.83,3.09-13.16c1.85-3.59,3.45-7.15,3.01-11.28-.17-1.55-2.61-1.57-2.45,0h0Z"/>
  </g>
  <g class="cls-1">
    <path class="cls-10" d="M72.8,130.75c4.45,10.72,3.58,16.95-.79,27.15-3.41,7.94-3.66,18.28-1.48,26.57,1.09,4.16,2.84,8.56,6.19,11.45,2.65,2.24,8.71.51,10.93,2.97,3.44,3.81-2.64,7.27-2.08,10.99.99,6.58,8.07,4.24,10.92-.1,5.79-8.8,1.51-20.4-7.88-23.86-22.16-8.17-.04-34.51-6.74-51.06"/>
    <path class="cls-5" d="M71.62,131.08c1.65,4.07,2.99,8.31,2.89,12.75-.09,4.2-1.42,8.23-2.99,12.09-3.19,7.85-4.35,15.89-3.1,24.33.86,5.79,3.24,15.85,9.81,17.76,2.45.71,8.14-.35,9.14,2.68.84,2.54-2.6,5.38-2.98,7.9-.86,5.76,4.97,7.85,9.3,5.42,5.18-2.91,7.26-9.68,6.49-15.28-.84-6.13-4.94-11.38-10.64-13.75-5.73-2.39-9.56-5.89-9.81-12.4-.49-12.62,8.16-25.52,3.33-38.03-.56-1.45-2.93-.82-2.36.65,3.98,10.29-1.79,21.89-3.12,32.18-.58,4.46-.54,9.33,1.96,13.25,1.28,2.01,3.09,3.62,5.14,4.81,2.7,1.57,5.71,2.25,8.1,4.36,4.94,4.36,6.57,11.69,3.65,17.65-1.21,2.46-3.56,5.16-6.54,5.29-1.42.06-2.39-.65-2.86-1.99-.61-1.72.17-3.09,1.02-4.54,1.15-1.97,2.44-4.09,1.57-6.42s-3.14-3.24-5.49-3.53c-1.47-.18-2.97-.16-4.43-.44-2.1-.4-3.4-1.83-4.57-3.55-2.09-3.07-3.21-6.77-3.94-10.37-.94-4.61-1.1-9.42-.52-14.09s2.35-8.83,3.99-13.24c1.36-3.66,2.35-7.51,2.31-11.45-.05-4.41-1.34-8.64-2.99-12.7-.58-1.44-2.95-.81-2.36.65h0Z"/>
  </g>
  <g class="cls-1">
    <path class="cls-10" d="M130.33,118.87c1.66,6.82,2.9,14.2,4.87,20.84,3.58,12.12,22.99,23.81,30.3,8.24,2.61-5.55,1.74-12.52,3.76-18.34,1.53-4.4,4.71-8.61,9.24-9.71,4.53-1.1,10.07,2.29,9.85,6.94-.05,1.13-.44,2.26-1.21,3.09-1.59,1.7-4.23,1.66-6.49,2.23-5.74,1.46-3.38,8.63-4,12.89-1.81,12.46-12.71,22.76-25.29,23.78-6.21.51-12.43-1.33-17.2-5.39-9.72-8.28-5.45-26.54-11.56-37.65"/>
    <path class="cls-5" d="M129.15,119.19c1.19,4.94,2.14,9.93,3.31,14.87.82,3.5,1.61,7.08,3.42,10.22,2.87,4.99,7.61,9.14,13,11.2,5.03,1.93,10.76,1.51,14.67-2.48,5.96-6.09,4.38-14.83,6.66-22.34,1.22-4.02,4.01-8.33,8.29-9.49,3.57-.97,8.9,1.39,8.64,5.67-.28,4.67-6.98,3.09-9.64,5.67-1.96,1.9-2.07,4.89-2.02,7.44.06,3.42-.06,6.45-1.22,9.73-1.32,3.74-3.54,7.16-6.33,9.97-5.94,5.98-14.64,9.28-23.04,7.6-4.83-.96-9.78-3.53-12.53-7.73-2.13-3.25-3.04-7.15-3.66-10.93-1.3-7.84-1.21-16.23-5.02-23.42-.74-1.39-2.85-.16-2.11,1.23,6.92,13.07.53,32.21,15.65,40.62,14.84,8.25,33.41-.97,39.17-16.06,1.25-3.26,1.68-6.47,1.57-9.93-.05-1.61-.19-3.33.25-4.9.6-2.14,2.15-2.7,4.17-3.09,3.58-.68,7.06-1.95,7.21-6.2.12-3.3-2.19-6.09-5.08-7.42-7.2-3.32-13.72,2.81-16.17,9.2-2.95,7.68-.31,19.26-8.46,24.22-6.47,3.94-14.66-1.06-19.05-5.91-2.79-3.09-4.21-6.52-5.25-10.5-1.54-5.92-2.62-11.95-4.05-17.89-.37-1.53-2.73-.88-2.36.65h0Z"/>
  </g>
  <g class="cls-1">
    <path class="cls-10" d="M97.75,132.69c8.12-4.49,7.49,15.34,7.11,18.8-.53,4.85-1.36,11.06,1.32,15.79,6.22,10.96,19.01,10.48,19.67,25.62.17,4,.14,9.86,4.31,12.26,5.51,3.16,13.02-1.94,14.45-7.38,1.47-5.57-1.97-11.98-6.22-15.5-7.91-6.54-19.04-7.73-23.04-18.7-1.59-4.35-2.52-8.98-2.74-13.65-.19-3.92.11-7.92-.81-11.73-.91-3.8-3.42-7.52-7.01-8.21"/>
    <path class="cls-5" d="M98.36,133.74c7-3.62,5.12,18.36,4.86,21.79-.3,3.81-.23,7.79,1.38,11.33,1.24,2.73,3.29,5.12,5.51,7.1,4.08,3.62,9.47,6.11,12.33,10.93,3.37,5.69.81,12.8,4.17,18.4s11.16,4.56,15.54.53c5.48-5.04,4.71-12.7.7-18.43-3.99-5.7-10.47-8.23-16.31-11.55-3.35-1.9-6.49-4.19-8.54-7.53-2.66-4.35-3.71-10.05-4.1-15.06-.57-7.46.93-20.05-8.8-22.43-1.53-.37-2.18,1.98-.65,2.36,9.09,2.22,6.4,16.51,7.36,23.28,1,7.05,3.21,13.97,8.97,18.51,4.83,3.81,10.81,5.76,15.74,9.41,6.23,4.61,10.5,14.33,3.4,20.14-2.83,2.32-7.43,3.6-10.34.67-2.3-2.32-2.35-6.16-2.48-9.21-.24-5.69-1.8-10.65-6.07-14.59-3.86-3.56-8.69-5.95-12.03-10.1-4.67-5.81-3.22-12.42-2.83-19.24.28-4.99.43-23.33-9.06-18.42-1.4.72-.16,2.83,1.23,2.11h0Z"/>
  </g>
  <path class="cls-5" d="M111.78,65.96c1.57.61,3.14,1.23,4.71,1.84-3.42.26-6.03,2.05-6.48,4.25-.16.75-.13,1.88.44,2.89.63,1.13,1.87,1.76,3.08,2.25,3.27,1.31,7.13,1.97,10.21.27,1.85-1.02,3.2-2.81,3.91-4.8.91-2.56.17-4.78-.06-5.51-.25-.77-.88-2.66-2.76-4.16-.78-.63-2.21-1.53-4.16-1.73-1.85-.19-3.24.34-3.99.63-2.72,1.07-4.25,3.1-4.88,4.06Z"/>
  <path class="cls-5" d="M147.95,50.64c5.57,2.58,10.27,6.78,13.41,12.05.78,1.3,1.47,2.66,2.03,4.07s1.23,2.94,1.04,4.42c-.22,1.77-2.22,2.23-3.73,2.34-1.78.13-3.49-.28-5.04-1.14-1.38-.76-2.61,1.35-1.23,2.11,3.08,1.71,8.03,2.41,10.92-.11,3.04-2.65.91-7.34-.48-10.29-3.21-6.81-8.88-12.42-15.7-15.58-1.42-.66-2.66,1.45-1.23,2.11h0Z"/>
  <path class="cls-5" d="M157.3,81.3c4.53,2.99,7.3,8.35,7.15,13.78-.07,2.46-.85,5.76-3.93,5.63s-6.17-2.42-8.3-4.45c-1.14-1.08-2.87.64-1.73,1.73,3.47,3.29,11.08,8.18,14.87,2.73,1.47-2.12,1.69-5.04,1.47-7.53-.23-2.63-1.01-5.18-2.28-7.49-1.45-2.63-3.53-4.86-6.03-6.51-1.32-.87-2.54,1.25-1.23,2.11h0Z"/>
  <path class="cls-5" d="M37.63,39.43c-.62-2.64-.81-5.44-1.2-8.12-.41-2.81-.81-5.63-1.22-8.44-.81-5.63-1.62-11.26-2.43-16.89l-2.36.65c3.34,8.73,9.78,15.99,18.14,20.22,1.4.71,2.64-1.4,1.23-2.11-7.76-3.93-13.9-10.62-17.01-18.76-.57-1.49-2.58-.9-2.36.65.81,5.63,1.62,11.26,2.43,16.89.41,2.81.81,5.63,1.22,8.44s.58,5.48,1.2,8.12c.36,1.53,2.72.88,2.36-.65h0Z"/>
  <path class="cls-5" d="M129.31,27.62c5.96-4.78,10.91-10.75,14.53-17.48l-2.28-.62c.34,4,.54,8.02.56,12.03.01,1.97-.02,3.94-.09,5.91-.03.94-.08,1.89-.13,2.83-.04.78-.69,3.82.87,3.56s.89-2.61-.65-2.36c-2.23.37-1.67,3.98.64,3.44,1.04-.24,1.35-1.11,1.42-2.05.12-1.57.2-3.14.27-4.72.25-6.22.09-12.45-.44-18.65-.1-1.13-1.66-1.77-2.28-.62-3.53,6.57-8.33,12.31-14.14,16.98-1.23.98.51,2.71,1.73,1.73h0Z"/>
  <path class="cls-5" d="M27.55,79.18c-4.41,2.91-7.43,7.66-8.18,12.9-.36,2.57-.3,5.36.83,7.75,1.22,2.58,3.8,3.65,6.54,3.18,3.31-.57,6.45-2.76,8.84-5.03,1.14-1.09-.59-2.81-1.73-1.73-2.12,2.01-5.25,4.34-8.3,4.45-3.08.11-3.86-3.16-3.93-5.63-.15-5.43,2.62-10.78,7.15-13.78,1.31-.86.08-2.98-1.23-2.11h0Z"/>
  <path class="cls-5" d="M98.12,90.89c-3.33,1.35-7.62-.41-8.8-3.86-.2-.58-.78-.96-1.39-.79-.56.15-.99.81-.79,1.39,1.55,4.53,7.07,7.27,11.59,5.44.57-.23.97-.75.79-1.39-.15-.54-.82-1.02-1.39-.79h0Z"/>
</svg>