<?xml version="1.0" encoding="UTF-8"?>
<svg id="Capa_1" data-name="Capa 1" xmlns="http://www.w3.org/2000/svg" viewBox="0 0 830.36 831.29">
  <defs>
    <style>
      .cls-1 {
        fill: #f6a631;
        opacity: .86;
      }
    </style>
  </defs>
  <path class="cls-1" d="M43.6,224.26s25.06-120.62,129.78-75.76c0,0-3.2-151.57,112-76.39,0,0,46.08,99.61,13.34,144.39,0,0,309.13,289.72,360.1,290.93l129.14,12.13-34.97,93.93-45.63-5.41-7.7,38.7-20.19-2.19s50.09,135.69-48.92,144.17c-99.01,8.49-77.12-157.64-77.12-157.64L180.55,302.24s-142.27-14.35-136.95-77.98Z"/>
  <path d="M157.89,134.05c-33.45-35.23-90.23-20.71-118.15,13.94-16.6,20.6-23.29,43.95-19.09,70.15,3.92,24.45,18.59,47.31,37.1,63.41,21.84,18.99,48.84,32.16,77.4,37.16,12.65,2.21,27.16-3.39,30.31-17.21,2.73-11.99-3.63-27.93-17.21-30.31-9.53-1.67-18.68-4.31-27.74-7.68-.98-.37-4.23-1.96.13.09-.94-.44-1.9-.85-2.84-1.3-2.19-1.03-4.36-2.11-6.5-3.25-4.25-2.27-8.39-4.77-12.37-7.48-1.11-.76-5.95-4.44-4.11-2.92,2.06,1.69-3.13-2.74-3.74-3.29-3.49-3.15-6.63-6.57-9.78-10.04-.72-.8-2.82-3.68.14.35-.58-.79-1.17-1.59-1.73-2.39-1.32-1.87-2.57-3.79-3.73-5.76-1-1.68-1.94-3.39-2.82-5.14-.59-1.16-1.11-2.35-1.67-3.52.87,1.82,1.14,3.1.3.46-1.41-4.43-2.44-8.77-3.47-13.29.97,4.28.12.94,0-1.42-.12-2.2.03-4.36.06-6.56.05-4.36-1.26,4.79.17-.67.48-1.83.89-3.66,1.47-5.46.24-.73.66-1.54.81-2.29.53-2.8-.63,2.47-.94,2.14-.32-.34,2.65-5.2,2.99-5.79.93-1.6,2.34-3.14,3.1-4.82,1.14-2.53-1.45,1.86-1.4,1.69.19-.64,1.79-2.17,2.11-2.54,2.55-2.93,5.39-5.48,8.23-8.11,3.13-2.9-3.74,2.37.89-.65,1.6-1.04,3.17-2.12,4.82-3.09,1.4-.82,2.83-1.6,4.28-2.32-.23.12,2.88-1.43,2.91-1.38.09.14-5.28,1.89-1.45.69,2-.63,3.97-1.34,6.01-1.86,1-.26,2.03-.43,3.02-.69,3.38-.9-.98.42-2.01.16,1.64.43,4.3-.36,6.03-.36.75,0,1.49.06,2.24.06,3.28,0,1.94,1.66-1.39-.35,1.36.82,4.19.87,5.74,1.35.68.21,1.4.58,2.1.72,2.57.51-3.93-2.25-1.8-.69.78.57,1.77,1,2.63,1.46,2.39,1.29.82,1.59.67.24-.07-.64-1.91-1.79-.04.02,1.17,1.14,2.35,2.21,3.47,3.4,8.89,9.37,26,9.63,34.85,0,9.22-10.05,9.49-24.85,0-34.85h0Z"/>
  <path d="M205.37,96.93c-1.98-4.01.69,3.89,0-.33-.12-.72-.3-1.65-.54-2.34-.87-2.5.69,2.5.4,2.66.59-.33-.7-7.9-.09-2.88.66,5.47,0-3.39,1.05-2.73.26.16-2.4,4.5-.96,2.26.42-.66.71-1.44,1.09-2.13.28-.51,2.09-4.14,2.6-4.11.35.02-3.44,3.67-1.3,1.73.6-.54,1.11-1.28,1.67-1.87,1.36-1.44,3.01-2.64,4.33-4.09,1.91-2.1-1.67,1.3-1.6,1.18.3-.56,2.22-1.54,2.88-1.97,1.47-.95,3-1.83,4.55-2.64.77-.4,1.63-.72,2.37-1.17,2.5-1.5-1.93.89-1.84.76.75-1.01,4.65-1.55,5.86-1.87.91-.24,6.42-1.61,2.73-.74-3.49.82,1.64-.04,2.79-.05.86-.01,1.74.06,2.6.03,5.14-.18-1.62-.21-1.39-.36.81-.55,4.96,1.13,5.89,1.42s1.8.67,2.71.95c-.3-.09-3.76-1.86-1.33-.55,1.72.93,3.5,1.73,5.2,2.72,1.68.97,3.23,2.17,4.91,3.13,2.33,1.34-.84-.74-1.1-.96,1,.82,2,1.64,2.97,2.5,3.18,2.81,6.12,5.89,8.85,9.14.64.76,1.26,1.52,1.88,2.3-.21-.26-2.31-3.34-.86-1,1.23,1.99,2.67,3.86,3.92,5.84,2.17,3.45,4.16,7,6.02,10.63,1.09,2.13,2.13,4.3,3.13,6.48.43.94.84,1.88,1.26,2.82-.92-2.02-1.02-2.52-.11-.17,3.02,7.83,5.81,15.78,7.95,23.9.64,2.41,1.2,4.83,1.67,7.27.46,2.37.58,6.92.4,1.91.15,4.4.43,8.67.27,13.08-.03.96-.84,3.34.02.3.99-3.51-.16.4-.37,1.07-.25.81-.49,1.68-.68,2.5-1.08,4.62,1.73-2.22.25-.43-1.62,1.95-3.5,4.83-.39,1.1-.89,1.07-.97,2.3.01.34,1.43-1,1.59-1.12.47-.36-.72.51-1.48.97-2.26,1.38-11.15,6.47-16.03,22.55-8.84,33.71,7.25,11.25,21.78,15.76,33.71,8.84,48-27.84,23.7-99.6,1.61-136.65-13.25-22.23-32.46-40.71-57.34-49.03-24.76-8.28-51.98.34-71.6,16.18-22.97,18.54-31.15,48.43-17.98,75.17,5.71,11.59,23.08,15.7,33.71,8.84,11.87-7.65,14.95-21.32,8.84-33.71h0Z"/>
  <path d="M570.85,627.15c-111.03-106.55-222.06-213.1-333.09-319.65-22.89-21.96-57.78,12.84-34.85,34.85,111.03,106.55,222.06,213.1,333.09,319.65,22.89,21.96,57.78-12.84,34.85-34.85h0Z"/>
  <path d="M287.83,254.3c90.55,97.85,192.46,184.71,303.05,259.14,26.38,17.75,51.08-24.92,24.87-42.55-107.18-72.13-205.35-156.63-293.08-251.44-21.59-23.33-56.37,11.59-34.85,34.85h0Z"/>
  <path d="M663.44,680.29c1.48,1.67,2.8,4.76-.59-1.03.52.89,1.24,1.71,1.81,2.58,1.15,1.74,2.19,3.54,3.13,5.39.46.92.83,1.9,1.33,2.8-3.45-6.23-1.4-3.35-.7-1.28.73,2.14,1.32,4.33,1.8,6.54.22,1.01.38,2.02.58,3.03.92,4.74-.49-6.46-.26-1.63.1,2.08.26,4.14.26,6.23s-.11,4.18-.3,6.27c-.07.83-.22,1.68-.27,2.51.47-8.28.29-2.45-.16-.3-.87,4.19-2.19,8.19-3.58,12.22-1.52,4.42,2.25-4.62.78-1.75-.48.95-.88,1.94-1.35,2.9-1.12,2.29-2.35,4.53-3.68,6.71-1.11,1.81-2.32,3.53-3.53,5.28-2.73,3.96,3.95-4.58.74-1-.56.63-1.09,1.28-1.65,1.91-1.39,1.56-2.85,3.06-4.37,4.49-.91.85-1.87,1.65-2.79,2.49-3.45,3.15,4.94-3.39,1.07-.8-3.46,2.32-7.12,4.05-10.67,6.17,5.82-3.48,3.52-1.44,1.29-.67-.98.34-1.96.64-2.96.93-2.22.63-4.51.89-6.73,1.46,8.05-2.06.98-.27-1.78-.28-1.26,0-8.7-.68-3.79-.07,4.84.61-2.84-.73-4.16-1.1-.81-.23-1.61-.47-2.4-.74-2.6-.86-5.75-3.66.05.19-3.47-2.3-7.36-3.98-10.84-6.36-3.16-2.15,1.82,1.34,1.98,1.53-.74-.92-2.01-1.69-2.89-2.49-1.89-1.72-3.7-3.55-5.4-5.46-.57-.64-1.11-1.31-1.68-1.95-3.25-3.62,3.45,4.92.67.92-1.23-1.78-2.47-3.54-3.61-5.38s-2.19-3.74-3.18-5.67c-.59-1.16-1.13-2.34-1.69-3.52-1.91-3.98,2.02,5.55.5,1.09-1.69-4.94-3.03-9.81-4.04-14.93-.76-3.88.36,2.55.35,2.75.07-1.65-.32-3.42-.39-5.08-.1-2.53-.07-5.06.12-7.58.06-.8.23-1.69.23-2.51-.01,7.78-.4,2.83.14.36.54-2.47,1.33-4.83,2.08-7.23.56-1.78,2.03-3.1-1.08,2.38.72-1.28,1.25-2.69,1.95-3.98,1.04-1.92,6.64-9.69,1.49-3.09,4.2-5.38,7.22-10.29,7.22-17.42,0-6.04-2.68-13.26-7.22-17.42-8.84-8.12-26.38-10.85-34.85,0-8.7,11.15-15.49,23.21-17.8,37.37-2.31,14.15-1.88,28.19,1.88,42.11,6.75,24.94,23.2,48.06,45.62,61.22,24.69,14.5,55.17,14.79,80.2.98,22.48-12.41,38.59-35.34,45.71-59.69,8.73-29.82,2.98-61.82-17.76-85.21-8.58-9.68-26.22-9.4-34.85,0-9.48,10.32-9.15,24.53,0,34.85h0Z"/>
  <path d="M703.22,647.57c13.87,1.93,27.48,1.95,40.93-2.65,13.19-4.51,24.67-11.43,35.11-20.64,19.48-17.19,31.55-42.29,33.21-68.13,1.55-24.17-9.14-49.3-27.4-65.18-18.04-15.69-40.61-24.3-64.48-25.27-25.39-1.03-51.95,8.45-69.2,27.46-8.66,9.54-10.13,25.55,0,34.85,9.44,8.67,25.6,10.19,34.85,0,1.34-1.48,2.71-2.9,4.19-4.24.65-.59,1.35-1.12,1.98-1.72,2.3-2.2-5.3,3.6-1.37,1.08,3.28-2.1,6.84-3.69,10.12-5.72-5.85,3.62-2.4,1,.15.16,1.85-.61,3.73-1.13,5.63-1.58,1.87-.44,3.93-.57,5.77-1.11-.25.07-6.62.63-2.65.4,1.31-.08,2.62-.22,3.93-.28,3.76-.17,7.47.05,11.22.32,5.79.42-5.66-1.2.01.04,2.16.47,4.32.88,6.46,1.46,1.92.51,3.82,1.1,5.69,1.76.83.29,1.65.62,2.48.92,3.7,1.32-2-.79-2.24-.96,3.25,2.36,7.48,3.74,10.88,6.02.72.48,1.41,1.02,2.14,1.49,2.69,1.73-4.88-4.19-1.4-1.06,1.28,1.16,2.6,2.26,3.84,3.47,1.23,1.21,2.35,2.52,3.54,3.77,3.21,3.38-2.79-4.1-1.03-1.45.6.9,1.26,1.75,1.85,2.66,1.07,1.64,2.06,3.33,2.96,5.07.4.78.74,1.59,1.15,2.36,1.51,2.81-2.05-6.15-.72-1.59.57,1.94,1.27,3.82,1.75,5.78.24.97.4,1.95.63,2.92,1.22,5.05-.27-5.85-.09-.68.07,1.97.23,3.92.19,5.89-.02,1-.72,8.54-.14,4.07.58-4.49-.64,2.79-.94,3.98-.6,2.42-1.44,4.74-2.19,7.1-.72,2.28-1.78,1.47.82-1.72-.49.61-.88,1.96-1.25,2.72-.98,2.03-2.06,4.02-3.21,5.95-1.03,1.73-2.16,3.38-3.28,5.06-2.23,3.35-1.64-.09.67-.76-.77.22-1.93,2.3-2.44,2.88-1.67,1.89-3.43,3.69-5.26,5.41-.92.86-1.89,1.66-2.81,2.51-3.18,2.94,3.37-2.13.86-.59-4.27,2.63-8.4,5.18-12.8,7.59-2.94,1.61,5.95-2.03,1.1-.51-1.17.37-2.32.81-3.5,1.17-2.37.72-4.79,1.08-7.16,1.72-3.28.88,6.55-.4,1.43-.2-1.24.05-2.47.17-3.7.2-1.97.05-11.25-.86-3.19.26-6.86-.95-12.75-1.17-18.99,2.48-5.11,2.99-9.99,8.85-11.32,14.73-2.64,11.61,3.56,28.41,17.21,30.31h0Z"/>
  <path d="M524.31,264.48c22.34-12.63,44.68-25.26,67.03-37.88,11.23-6.35,15.98-22.64,8.84-33.71-7.32-11.35-21.7-15.63-33.71-8.84-22.34,12.63-44.68,25.26-67.03,37.88-11.23,6.35-15.98,22.64-8.84,33.71,7.32,11.35,21.7,15.63,33.71,8.84h0Z"/>
  <path d="M540.18,326c18.46,2.89,36.92,5.77,55.38,8.66,3.28,1.03,6.55,1.17,9.83.44,3.28-.15,6.33-1.12,9.16-2.92,5.11-2.99,9.99-8.85,11.32-14.73,1.44-6.31,1.13-13.39-2.48-18.99-3.25-5.04-8.53-10.36-14.73-11.32-18.46-2.89-36.92-5.77-55.38-8.66-3.28-1.03-6.55-1.17-9.83-.44-3.28.15-6.33,1.12-9.16,2.92-5.11,2.99-9.99,8.85-11.32,14.73-1.44,6.31-1.13,13.39,2.48,18.99,3.25,5.04,8.53,10.36,14.73,11.32h0Z"/>
  <path d="M235.09,511.37c-13.6,13.6-27.2,27.2-40.8,40.8-4.47,4.47-7.22,11.11-7.22,17.42s2.68,13.26,7.22,17.42c4.7,4.31,10.86,7.51,17.42,7.22,6.54-.29,12.71-2.5,17.42-7.22,13.6-13.6,27.2-27.2,40.8-40.8,4.47-4.47,7.22-11.11,7.22-17.42s-2.68-13.26-7.22-17.42c-4.7-4.31-10.86-7.51-17.42-7.22-6.54.29-12.71,2.5-17.42,7.22h0Z"/>
  <path d="M215.11,455.71c-13.59-6.11-28.21-9.66-43.19-7.77-7.47.94-14.51,2.08-21.48,4.94-4.15,1.7-8.33,3.39-12.22,5.66-4.11,2.4-7.83,5.43-11.55,8.38-4.61,3.67-7.22,11.82-7.22,17.42,0,6.04,2.68,13.26,7.22,17.42,4.7,4.31,10.86,7.51,17.42,7.22,2.18-.29,4.37-.59,6.55-.88,4.17-1.17,7.8-3.28,10.87-6.34l.69-.55c-1.66,1.28-3.32,2.57-4.99,3.85,3.77-2.9,7.83-5.26,12.19-7.15-1.96.83-3.92,1.66-5.89,2.48,4.67-1.93,9.5-3.26,14.49-4l-6.55.88c5.3-.71,10.61-.73,15.92-.05-2.18-.29-4.37-.59-6.55-.88,4.7.68,9.25,1.89,13.65,3.69l-5.89-2.48c.55.23,1.09.47,1.63.71,6.23,2.8,12.14,4.37,18.99,2.48,5.72-1.57,11.91-5.99,14.73-11.32,3.02-5.72,4.54-12.65,2.48-18.99-1.85-5.73-5.59-12.15-11.32-14.73h0Z"/>
</svg>