<?xml version="1.0" encoding="UTF-8"?>
<svg id="Capa_1" data-name="Capa 1" xmlns="http://www.w3.org/2000/svg" viewBox="0 0 1107.14 897.77">
  <defs>
    <style>
      .cls-1 {
        fill: #e21938;
        opacity: .83;
      }
    </style>
  </defs>
  <path class="cls-1" d="M44.5,218.91L337.95,51.96l101.86,15.25,71.54,178.25,106.72,29.1s31.51,191.2,152.77,162.3c121.26-28.91,209.78-62.86,209.78-62.86,0,0,113.98,75.74,54.57,233.7l-138.24-80.87s-69.81,33.16-59.42,40.44c10.39,7.28,99.43,116.39,99.43,116.39l20.61,126.87s-95.79-125.61-163.7-116.77c-67.91,8.85-140.66-60.88-140.66-60.88-3.54,2.44-43.02,28.71-86.09,11.52-24.84-9.91-37.84-29.07-42.44-36.7-33.14-70.23-66.29-140.46-99.43-210.69l-166.12,20.21c-8.7-3.09-29.53-11.85-44.87-33.52-24.9-35.19-14.55-75.05-12.95-80.81-17.48-31.85-34.97-63.69-52.45-95.54-27.1-7.72-43.5-3.5-53.43,1.74-14.14,7.45-22.62,20.83-35.79,19.06-7.02-.94-12.15-5.77-15.14-9.25Z"/>
  <path d="M78.75,245.36c10.92-30.67,53.77-24.24,72.06-5.74,24.83,25.12,25.94,60.82,27.09,93.84,1.07,30.78,3.32,64.62,23.95,89.3,19.46,23.27,48.69,31.4,77.99,26.62,32.1-5.23,60.05-24.11,91.93-29.88,33.49-6.06,54.7,15.84,68.15,44.18,27.08,57.08,20.18,126.15,63.46,176.36,21.89,25.4,51.54,38.8,84.93,33.53,15.1-2.38,29.77-7.71,45.25-6.75,20.45,1.27,38.79,11.61,53.69,25.11,23.46,21.25,58.41-13.5,34.85-34.85-26.94-24.4-61.2-41.55-98.37-39.48-32.08,1.79-58.63,19.31-83.51-10-23.03-27.13-28.51-66.67-35.44-100.34-6.73-32.64-17.2-65.84-37.1-93-19.84-27.08-48.74-45.34-83.03-45.34-35.62,0-66.38,18.63-99.55,28.66-42.46,12.83-55.53-15.69-57.52-53.75-1.98-37.73-1.96-73.98-19.79-108.49-18.2-35.21-52.98-61.53-93.68-60.78-37.79.7-70.19,21.99-82.88,57.67-10.65,29.93,36.95,42.82,47.52,13.1h0Z"/>
  <path d="M371.67,79.97c12.44-9.74,32.32,1.87,41.3,11.07,14.45,14.8,18.63,37.49,22.4,57.1,6.9,35.92,11.9,71.85,34.79,101.76,25.31,33.07,57.63,37.59,96.88,35.47,15.88-.86,31.01-1.65,38.22,14.62,6.26,14.14,5.15,32.17,6.14,47.26,2.13,32.49,6.9,64.55,30.1,89.21,22.39,23.8,54.83,35.1,86.75,37.88,81.07,7.05,142.25-55.39,219.48-63.42,20.19-2.1,43.81.02,58.34,15.87,16.17,17.65,17.42,46.06,18.82,68.65,3.32,53.59-1.69,106.74-14.25,158.9h47.52c-13.63-55.45-42.94-115.53-100.35-136.09-47.64-17.06-106.45-2.7-131.16,43.86-5.06,9.52-4.25,22.12,3.85,29.86,66.73,63.72,101.68,157.54,88.82,249.54,16.13,2.18,32.27,4.37,48.4,6.55-1.76-94.55-88.26-175.71-183.55-167-31.32,2.86-31.62,52.17,0,49.28,68.27-6.24,132.97,48.06,134.27,117.72.49,26.53,44.42,35.03,48.4,6.55,15.34-109.74-20.9-220.54-101.5-297.49,1.28,9.95,2.57,19.91,3.85,29.86,15.39-28.99,53.57-32.92,80.83-18.49,35.9,19,51.52,61.98,60.61,98.95,5.75,23.4,41.85,23.56,47.52,0,12.13-50.36,18.31-102.16,16.83-153.99-1.21-42.4-3.98-92.51-36.53-123.88-70.01-67.47-168.36-1.26-240.19,24.39-34.98,12.5-77.91,19.6-110.85-2.8-32.19-21.9-25.2-64.67-29.47-98.49-4.61-36.45-22.17-67.93-60.72-75.57-21.07-4.18-42.98,4.35-63.64-.24-21.2-4.71-32.68-26.66-38.97-45.62-14.75-44.46-10.43-96.11-44.49-132.72-30.42-32.7-77.47-41.45-113.3-13.39-24.95,19.53,10.15,54.19,34.85,34.85h0Z"/>
  <path d="M320.41,211.33c35.21,55.73,83.62,102.56,140.78,135.46,11.18,6.43,27.47,2.98,33.71-8.84,6.21-11.75,3.09-26.84-8.84-33.71-13.19-7.59-25.94-15.91-38.13-25.02-1.16-.87-2.32-1.74-3.47-2.62,4.14,3.16-1.5-1.22-1.86-1.51-2.83-2.27-5.62-4.57-8.38-6.92-5.79-4.93-11.44-10.03-16.93-15.3-10.71-10.28-20.82-21.19-30.26-32.66-1.15-1.4-2.29-2.81-3.42-4.22-1.16-1.46-2.97-3.78-.83-1-2.21-2.87-4.36-5.78-6.48-8.72-4.66-6.47-9.09-13.08-13.35-19.82-6.88-10.89-22.26-16.22-33.71-8.84-10.9,7.03-16.2,22.06-8.84,33.71h0Z"/>
  <path d="M546.53,423.77c17.25,60.05,73.76,103.71,136,106.2,12.89.52,25.22-11.7,24.64-24.64-.62-13.79-10.83-24.09-24.64-24.64-3.18-.13-6.42-.73-9.59-.74,2.28,0,4.87.73,1.01.07-1.58-.27-3.15-.57-4.71-.91-5.73-1.23-11.37-2.9-16.85-4.97-5.03-1.9.61.51.69.39-.12.16-3.78-1.7-4.38-1.98-2.89-1.38-5.73-2.87-8.51-4.47-2.32-1.33-4.59-2.74-6.82-4.21-1.34-.89-2.66-1.8-3.96-2.73-.65-.47-1.3-.94-1.94-1.42-1.47-1.1-.87-.63,1.81,1.41-1.15.17-5.92-5-6.71-5.73-2.17-1.98-4.28-4.04-6.3-6.17-2.03-2.13-3.98-4.33-5.85-6.59-.51-.61-1.02-1.24-1.52-1.86,2.04,2.68,2.51,3.28,1.41,1.81-.77-1.09-1.58-2.15-2.34-3.25-3.34-4.82-6.34-9.87-8.94-15.13-.09-.17-2.1-4.31-2.03-4.34,1.32,3.19,1.63,3.93.93,2.2-.3-.74-.59-1.49-.87-2.24-1.13-3-2.11-6.06-2.99-9.14-3.56-12.38-17.55-21.34-30.31-17.21-12.59,4.07-21.02,17.04-17.21,30.31h0Z"/>
</svg>