<?xml version="1.0" encoding="UTF-8"?>
<svg id="Capa_1" data-name="Capa 1" xmlns="http://www.w3.org/2000/svg" viewBox="0 0 894.42 890.86">
  <defs>
    <style>
      .cls-1 {
        fill: #f6a631;
        opacity: .86;
      }

      .cls-2 {
        fill: #e21938;
        opacity: .83;
      }

      .cls-3 {
        fill: #e9e9ea;
      }
    </style>
  </defs>
  <rect class="cls-2" x="12.57" y="8.98" width="863.5" height="863.5" rx="12" ry="12"/>
  <path class="cls-3" d="M212.87,322.85c45.6-17.72,233.55-88.69,351.1,58.94,71.99,90.42,147.14,249.78,147.14,249.78-8.63,7.96-21.98,18.46-40.29,26.12-48.01,20.08-95.77,6.29-161.61-17.25-116.32-41.6-174.48-62.39-196.78-82.21-87.51-77.75-97.91-193.94-99.55-235.38Z"/>
  <path class="cls-1" d="M454.77,665.73l-38.38-127.3c-.26-.85-1.03-1.45-1.92-1.48l-138.24-4.78c-.86-.03-1.17-1.15-.45-1.61l114.41-73.79c.78-.5,1.13-1.46.87-2.35l-38.34-127.15c-.24-.81.69-1.46,1.36-.96l109.24,81.67c.7.52,1.65.55,2.38.08l114.62-73.93c.71-.46,1.6.26,1.3,1.05l-47.03,124.2c-.33.87-.04,1.85.7,2.41l109.04,81.52c.69.51.3,1.61-.56,1.58l-138.24-4.78c-.89-.03-1.7.51-2.02,1.34l-47.09,124.35c-.3.78-1.42.74-1.66-.06Z"/>
  <path d="M270.9,326.41c104.29-48.41,227.79,3.82,301.98,82.2,86.92,91.83,124.32,218.69,160.14,336.77,9.18,30.27,56.76,17.37,47.52-13.1-40.15-132.36-84.09-276.69-188.41-374-91.79-85.62-227.75-129.37-346.1-74.42-28.74,13.34-3.74,55.84,24.87,42.55h0Z"/>
  <path d="M188.23,370.94c1.7,100.53,67.37,186.25,151.37,236.28,99.15,59.05,218.85,67.36,331.22,75.12,31.65,2.19,31.52-47.11,0-49.28-99.28-6.85-205.06-13.25-294.42-61.61-74.28-40.2-137.4-112.62-138.88-200.5-.53-31.68-49.82-31.78-49.28,0h0Z"/>
  <path d="M340.52,91.46c-31.41,13.49-55.54,42.93-64.93,75.5-2.22,7.71-.25,18.69,6.34,23.97,7.85,6.31,15.47,10.94,25.17,14.05,7.59,2.44,16.02,3.53,23.99,3.16,18.01-.83,35.06-7.48,48.1-20.09,9.28-8.98,9.69-25.95,0-34.85-9.97-9.15-24.94-9.58-34.85,0-1.24,1.2-2.54,2.33-3.9,3.4,1.66-1.28,3.32-2.57,4.99-3.85-2.99,2.25-6.19,4.1-9.62,5.6,1.96-.83,3.92-1.66,5.89-2.48-4,1.67-8.13,2.8-12.42,3.44,2.18-.29,4.37-.59,6.55-.88-4.59.61-9.18.62-13.78.05,2.18.29,4.37.59,6.55.88-4.29-.61-8.41-1.73-12.41-3.4,1.96.83,3.92,1.66,5.89,2.48-3.43-1.51-6.62-3.38-9.6-5.67,1.66,1.28,3.32,2.57,4.99,3.85l-.67-.54c2.11,7.99,4.22,15.98,6.34,23.97,1.03-3.58,2.27-7.09,3.7-10.53-.83,1.96-1.66,3.92-2.48,5.89,3.18-7.44,7.27-14.39,12.17-20.83-1.28,1.66-2.57,3.32-3.85,4.99,5.15-6.64,11.08-12.57,17.72-17.72-1.66,1.28-3.32,2.57-4.99,3.85,6.19-4.7,12.88-8.63,20.02-11.7,5.27-2.26,9.88-9.47,11.32-14.73,1.62-5.9.89-13.75-2.48-18.99-3.39-5.26-8.44-9.89-14.73-11.32-2.18-.29-4.37-.59-6.55-.88-4.45.01-8.59,1.14-12.44,3.36h0Z"/>
  <path d="M655.92,202.25c-8.29,3.24-14.37,6.64-21.12,12.48-4.76,4.11-8.83,9.45-12,14.84-6.34,10.82-10.21,24.6-9.01,37.19,1.41,14.83,6.75,28.89,17.91,39.23,11.21,10.39,24.74,15.71,39.74,17.43,13.45,1.54,28.96-1.96,39.93-10.06,5.34-3.94,9.5-8.09,11.32-14.73,1.62-5.9.89-13.75-2.48-18.99-3.39-5.26-8.44-9.89-14.73-11.32-6.06-1.38-13.76-1.38-18.99,2.48-2.24,1.66-4.62,3.02-7.17,4.14,1.96-.83,3.92-1.66,5.89-2.48-3.08,1.26-6.25,2.1-9.54,2.57,2.18-.29,4.37-.59,6.55-.88-3.6.44-7.18.43-10.79-.01,2.18.29,4.37.59,6.55.88-3.88-.55-7.61-1.57-11.23-3.08,1.96.83,3.92,1.66,5.89,2.48-3.05-1.35-5.9-3-8.57-5.01,1.66,1.28,3.32,2.57,4.99,3.85-2.39-1.89-4.52-4-6.42-6.39,1.28,1.66,2.57,3.32,3.85,4.99-1.68-2.24-3.07-4.61-4.2-7.17.83,1.96,1.66,3.92,2.48,5.89-1.16-2.83-1.95-5.72-2.4-8.74.29,2.18.59,4.37.88,6.55-.46-3.59-.44-7.15.02-10.73-.29,2.18-.59,4.37-.88,6.55.53-3.6,1.48-7.06,2.84-10.44-.83,1.96-1.66,3.92-2.48,5.89,1.42-3.34,3.2-6.46,5.37-9.37-1.28,1.66-2.57,3.32-3.85,4.99,2.05-2.62,4.35-4.96,6.96-7.02-1.66,1.28-3.32,2.57-4.99,3.85,2.22-1.67,4.57-3.07,7.1-4.21-1.96.83-3.92,1.66-5.89,2.48.51-.22,1.03-.43,1.55-.63,6.17-2.41,11.26-5.41,14.73-11.32,3.09-5.28,4.4-13.07,2.48-18.99-1.93-5.96-5.62-11.71-11.32-14.73-5.51-2.91-12.92-4.85-18.99-2.48h0Z"/>
  <path d="M730.69,353.25c-21.85,21.85-47.12,50.24-44.01,83.66,3.27,35.12,33.25,67.84,70.79,58.55,12.52-3.1,21.23-17.88,17.21-30.31-4.2-12.98-16.9-20.53-30.31-17.21-.64.18-1.28.33-1.93.44-1.97.37-.85.21,3.37-.47-.81-.24-2.3-.07-3.13-.02-2.82.16,6.09,1.51,2.28.21-2.94-1-2.85-1.95,1.22.86-1.31-.9-3.92-2.67-5.43-3.17,1.42.47,4.35,3.9,1.5.98-.76-.78-1.52-1.59-2.31-2.33-3.37-3.17,3.03,4.77.53.82-.6-.95-1.25-1.87-1.83-2.84s-1.06-2-1.63-2.98c-2.39-4.14,1.69,5.45.35.86-.64-2.2-1.24-4.36-1.79-6.58-1.14-4.62.1,5.9.22,1.17.03-1.11-.01-2.25-.03-3.36-.05-3.42,1.54-.9-.38,1.62.6-.79.56-2.97.78-3.92.64-2.73,2.21-5.58,2.61-8.31-.31,2.13-1.95,4.32-.23.82.58-1.19,1.2-2.37,1.84-3.53,1.43-2.57,3.01-5.06,4.68-7.49.43-.62,1.59-3.07,2.37-3.29-2.04,2.61-2.5,3.19-1.36,1.76.51-.64,1.02-1.28,1.55-1.91,1.75-2.11,3.55-4.18,5.39-6.21,4.04-4.45,8.27-8.72,12.51-12.97,9.13-9.13,9.81-25.84,0-34.85-9.84-9.03-25.11-9.74-34.85,0h0Z"/>
  <path d="M135.15,364.37c-16.73,27.86-25.54,60.47-25.09,92.96.11,7.97,4.45,17.81,12.2,21.28,6.12,2.73,11.87,5.09,18.48,6.09,9.1,1.39,16.51,1.31,25.63-.09,13.17-2.02,25.09-8.68,34.96-17.43,9.68-8.58,9.4-26.21,0-34.85-10.32-9.48-24.53-9.15-34.85,0-2.11,1.87-3.65,1.62,1.27-.84-.87.43-1.66,1.15-2.48,1.66-1.87,1.16-3.81,2.14-5.82,3.04l5.89-2.48c-4.09,1.7-8.28,2.84-12.66,3.46,2.18-.29,4.37-.59,6.55-.88-3.99.46-7.94.47-11.94,0,2.18.29,4.37.59,6.55.88-3.98-.57-7.78-1.59-11.5-3.12,1.96.83,3.92,1.66,5.89,2.48l-1.09-.49c4.07,7.09,8.14,14.18,12.2,21.28-.1-7.53.33-15.01,1.3-22.48-.29,2.18-.59,4.37-.88,6.55,1.88-13.53,5.49-26.68,10.79-39.27-.83,1.96-1.66,3.92-2.48,5.89,2.8-6.48,6-12.73,9.64-18.78,6.64-11.06,2.83-27.55-8.84-33.71-11.93-6.3-26.62-2.97-33.71,8.84h0Z"/>
  <path d="M225.1,578.7c-16.52,25.11-15.23,61.78,2.33,86.09,9.94,13.76,22.95,23.9,39.37,28.81,14.37,4.3,30.89,4.02,45.19-.41,17.85-5.53,32.79-16.59,43.04-32.22,7.08-10.8,2.51-27.72-8.84-33.71-12.32-6.51-26.15-2.69-33.71,8.84-.52.8-1.12,1.56-1.62,2.36-1.38,2.24,3.66-4.08,1.73-2.3-1.24,1.15-2.28,2.54-3.52,3.71-.64.61-1.55,1.21-2.12,1.89-1.52,1.81,5.29-3.68,1.85-1.41-1.43.94-2.82,1.92-4.3,2.78-1.49.86-3.02,1.6-4.56,2.37-3.08,1.54,2.68-1.06,2.73-1.14-.32.49-2.18.8-2.69.97-3.46,1.15-6.99,1.92-10.6,2.44,2.18-.29,4.37-.59,6.55-.88-4.95.6-9.86.62-14.81,0,2.18.29,4.37.59,6.55.88-2.63-.39-5.22-.91-7.77-1.67-1.09-.33-2.15-.73-3.23-1.09-3.9-1.3,6.18,3.03.69.17-2.04-1.07-3.84-2.51-5.83-3.63,3.45,2.73,4.21,3.3,2.3,1.73-.58-.49-1.14-1-1.7-1.52-.83-.78-1.63-1.59-2.4-2.42s-1.44-1.77-2.22-2.58c5.14,5.33,2.12,2.77.86.84-1.35-2.08-2.47-4.26-3.6-6.47-1.99-3.9,2.14,6.27.52,1.13-.4-1.27-.87-2.53-1.23-3.81-.73-2.58-1.26-5.2-1.65-7.85.29,2.18.59,4.37.88,6.55-.64-4.95-.68-9.87-.1-14.82-.29,2.18-.59,4.37-.88,6.55.5-3.61,1.38-7.03,2.48-10.49.29-.92,1.47-3.67-.21.3-1.76,4.15-.3.78.18-.16.86-1.7,1.85-3.33,2.9-4.93,7.1-10.79,2.5-27.72-8.84-33.71-12.33-6.52-26.13-2.68-33.71,8.84h0Z"/>
  <path d="M559.19,679.77c-18.69,20.05-21.97,52.11-7.2,75.47,7.74,12.23,19.45,21.46,33.49,25.31,5.89,1.62,12.39,2.45,18.52,2.09,6.26-.37,12.86-1.26,18.77-3.54,14.31-5.51,27.61-14.79,34.43-29.01,2.91-6.06,4.32-12.3,2.48-18.99-1.57-5.72-5.99-11.91-11.32-14.73-5.72-3.02-12.65-4.54-18.99-2.48-5.82,1.88-11.98,5.6-14.73,11.32-1.07,2.22-2.34,4.29-3.85,6.24,1.28-1.66,2.57-3.32,3.85-4.99-1.85,2.29-3.92,4.31-6.24,6.11,1.66-1.28,3.32-2.57,4.99-3.85-2.57,1.92-5.31,3.49-8.24,4.78,1.96-.83,3.92-1.66,5.89-2.48-3.43,1.43-6.97,2.4-10.65,2.93,2.18-.29,4.37-.59,6.55-.88-3.43.42-6.83.44-10.26.02,2.18.29,4.37.59,6.55.88-2.91-.42-5.71-1.15-8.44-2.24,1.96.83,3.92,1.66,5.89,2.48-2.51-1.06-4.84-2.38-7.03-4,1.66,1.28,3.32,2.57,4.99,3.85-2.36-1.83-4.43-3.91-6.26-6.27,1.28,1.66,2.57,3.32,3.85,4.99-1.77-2.39-3.23-4.94-4.43-7.67.83,1.96,1.66,3.92,2.48,5.89-1.34-3.24-2.26-6.57-2.78-10.03.29,2.18.59,4.37.88,6.55-.5-3.73-.52-7.43-.04-11.17-.29,2.18-.59,4.37-.88,6.55.47-3.2,1.29-6.28,2.5-9.27-.83,1.96-1.66,3.92-2.48,5.89,1.18-2.74,2.65-5.27,4.46-7.64-1.28,1.66-2.57,3.32-3.85,4.99.63-.78,1.28-1.53,1.96-2.26,4.41-4.73,7.22-10.88,7.22-17.42,0-6.04-2.68-13.26-7.22-17.42-4.7-4.31-10.86-7.51-17.42-7.22-6.4.29-12.93,2.4-17.42,7.22h0Z"/>
  <path d="M142.64,524.1c-50.67,14.5-68.48,82.64-40.33,124.69,9.21,13.77,21.55,23.28,37.18,28.78,12.17,4.28,27.5-4.85,30.31-17.21,3.14-13.78-4.17-25.73-17.21-30.31-5.69-2,4.33,2.49.91.45-1.2-.71-2.48-1.28-3.68-2.01-.89-.55-4.77-3.42-.91-.4,3.88,3.03.1.02-.65-.67-1-.91-1.96-1.88-2.87-2.88-.46-.5-.9-1.01-1.34-1.53-1.54-1.89-.88-1.03,1.98,2.58-.85-2.08-2.72-4.04-3.8-6.07-.63-1.17-1.06-2.63-1.81-3.71,3.38,4.96,1.79,4.67.94,2.02-.86-2.68-1.7-5.33-2.29-8.09-.22-1.04-.39-2.09-.59-3.13-.78-4.12.74,7.37.23,1.26-.23-2.67-.3-5.35-.22-8.03.04-1.25.11-2.5.21-3.75.51-6.12-.99,5.37-.23,1.24.45-2.45.92-4.87,1.58-7.28.38-1.36.79-2.7,1.26-4.03.23-.66.47-1.32.72-1.97.92-2.3.5-1.31-1.28,2.99,1.37-1.87,2.15-4.41,3.38-6.41.66-1.07,1.82-2.25,2.28-3.41-1.78,4.53-3.46,4.1-1.32,1.79,1.77-1.9,4.27-3.64,5.82-5.66-3.72,4.86-4.05,2.83-1.7,1.43,1.18-.7,2.32-1.46,3.54-2.11,2.32-1.23,6.2-1.64-1.11.31,1.38-.37,2.72-.95,4.1-1.34,12.38-3.54,21.34-17.56,17.21-30.31-4.08-12.6-17.04-21.01-30.31-17.21h0Z"/>
  <path d="M384.44,723.33c-3.9.42-7.85.73-11.57,2.05-6.23,2.21-10,4.46-15.02,8.69-4.13,3.48-7.56,8.06-9.8,12.97-5.87,12.85-7.28,27.12-3.25,40.8,3.8,12.91,12.18,25.34,24.29,31.77,15.28,8.12,34.45,9.13,50.61,2.96,10.5-4.01,18.94-9.07,27.69-16.04,7.14-5.69,12.71-12.44,18.21-19.7,3.6-4.75,3.98-13.54,2.48-18.99-1.57-5.72-5.99-11.91-11.32-14.73-5.72-3.02-12.65-4.54-18.99-2.48-1.96.83-3.92,1.66-5.89,2.48-3.7,2.19-6.65,5.14-8.84,8.84l-.55.73c1.28-1.66,2.57-3.32,3.85-4.99-4.23,5.46-9.09,10.33-14.55,14.56,1.66-1.28,3.32-2.57,4.99-3.85-4.47,3.38-9.24,6.25-14.39,8.45,1.96-.83,3.92-1.66,5.89-2.48-3.89,1.59-7.87,2.75-12.02,3.38,2.18-.29,4.37-.59,6.55-.88-3.5.45-6.97.5-10.48.08,2.18.29,4.37.59,6.55.88-3.17-.46-6.23-1.26-9.18-2.49,1.96.83,3.92,1.66,5.89,2.48-1.82-.82-3.5-1.83-5.08-3.05,1.66,1.28,3.32,2.57,4.99,3.85-1.53-1.25-2.89-2.63-4.13-4.17,1.28,1.66,2.57,3.32,3.85,4.99-1.71-2.22-3.08-4.62-4.17-7.2.83,1.96,1.66,3.92,2.48,5.89-1.13-2.82-1.9-5.72-2.33-8.72.29,2.18.59,4.37.88,6.55-.4-3.15-.42-6.3,0-9.45-.29,2.18-.59,4.37-.88,6.55.36-2.43.98-4.78,1.91-7.05-.83,1.96-1.66,3.92-2.48,5.89.72-1.65,1.59-3.19,2.66-4.64-1.28,1.66-2.57,3.32-3.85,4.99.97-1.25,2.05-2.36,3.29-3.34-1.66,1.28-3.32,2.57-4.99,3.85,1.14-.86,2.34-1.56,3.64-2.15-1.96.83-3.92,1.66-5.89,2.48,1.59-.65,3.22-1.07,4.92-1.31-2.18.29-4.37.59-6.55.88l.6-.07c6.72-.73,12.47-2.26,17.42-7.22,4.27-4.27,7.49-11.29,7.22-17.42-.29-6.37-2.38-12.98-7.22-17.42-4.51-4.14-11.05-7.91-17.42-7.22h0Z"/>
</svg>