<?xml version="1.0" encoding="UTF-8"?>
<svg id="Capa_1" data-name="Capa 1" xmlns="http://www.w3.org/2000/svg" viewBox="0 0 1097.49 1345.31">
  <defs>
    <style>
      .cls-1 {
        fill: #70b52c;
        opacity: .87;
      }
    </style>
  </defs>
  <path class="cls-1" d="M554.3,1271.67c-.09-1.3-54.02-225.48-54.02-225.48,0,0,247.24,27.94,285.75-81.23l23.56,35.74,35.09-4.55s32.16,291.12,14.13,306.71c-18.03,15.6-304.51-31.19-304.51-31.19Z"/>
  <path d="M456.69,867.49c-39.01-26.68-75.18-56.93-108.16-90.8-28.84-29.6-65.58-64.85-77.55-105.62-4.74-16.14-4.49-36.41,15.82-40.18,17.33-3.22,37.54,8.7,51.1,18.01,35.8,24.58,65.29,55.43,111.86,54.42,9.71-.21,22.21-7.43,23.76-18.09,10.5-72.34-16.57-136.26-31.97-205.58-11.63-52.35-11.15-139.66,56.86-154.36,52.82-11.42,77.87,52.84,82.28,94.28,6.74,63.44-10.36,126.52,13.63,188.03,8.53,21.86,40.08,24.83,47.52,0,16.27-54.29,41.18-134.83,109.42-138.47,21.92-1.17,48.97,6.27,57.06,29.13,11.93,33.74-20.73,68.06-43.45,88.39-50.11,44.85-99.29,83.85-94.95,157.88,4.72,80.54,31.29,163.8,57.98,239.38,10.49,29.7,58.12,16.91,47.52-13.1-16.55-46.85-30.56-94.52-41.44-143.01-9.73-43.33-28.12-99.14-2.44-139.89,19.84-31.47,53.76-51.07,79.51-77.08,27.28-27.54,50.93-64.21,48.56-104.49-4.06-68.86-78.75-97.84-138.22-82.1-76.04,20.12-106.83,102.73-127.07,170.27h47.52c-27.58-70.71,1.54-147.88-20.25-219.98-16.57-54.83-60.71-106.72-123.38-98.98-67.28,8.32-108.01,73.56-112.31,136.62-6.08,89.14,52.98,171.16,40.1,259.95,7.92-6.03,15.84-12.06,23.76-18.09-30.51.66-53.69-22.42-76.48-39.83-18.98-14.5-40.26-26.52-64.03-30.81-48.43-8.75-92.42,23.62-90.32,74.67,2.13,51.68,41.93,95.56,74.57,131.9,40.99,45.62,87.75,85.48,138.33,120.08,26.24,17.95,50.92-24.74,24.87-42.55h0Z"/>
  <path d="M490.85,938.93c16.09,37.1,32.17,74.2,48.26,111.29,5.15,11.87,23.45,15.46,33.71,8.84,12.32-7.94,14.35-21.01,8.84-33.71-16.09-37.1-32.17-74.2-48.26-111.29-5.15-11.87-23.45-15.46-33.71-8.84-12.32,7.94-14.35,21.01-8.84,33.71h0Z"/>
  <path d="M163.15,583.53c-20.31-50.29-40.63-100.58-60.94-150.87-12.07,9.28-24.13,18.55-36.2,27.83,9.71,6.26,19.24,12.78,28.53,19.64,5.05,3.73,5.45,4.01,9.83,7.48,4.53,3.59,8.99,7.25,13.39,10.98,17.29,14.65,33.59,30.42,48.91,47.12,8.74,9.52,26.11,9.52,34.85,0,9.35-10.18,9.32-24.69,0-34.85-32.67-35.59-70.05-66.76-110.64-92.93-8.28-5.34-19.9-3.84-27.37,1.93-7.08,5.47-12.47,16.88-8.83,25.9,20.31,50.29,40.63,100.58,60.94,150.87,4.81,11.91,16.64,21.64,30.31,17.21,11.51-3.72,22.38-17.51,17.21-30.31h0Z"/>
  <path d="M426.95,237.03c10.89-62.98,32.1-123.3,63.65-178.9-15.01-1.96-30.02-3.92-45.04-5.89,15.29,47.2,30.57,94.41,45.86,141.61,4.1,12.66,17.07,20.85,30.31,17.21,12.42-3.41,21.33-17.6,17.21-30.31-15.29-47.2-30.57-94.41-45.86-141.61-6.35-19.61-34.2-24.99-45.04-5.89-33.52,59.07-57.04,123.73-68.62,190.67-2.27,13.1,3.5,26.54,17.21,30.31,11.86,3.26,28.03-4.03,30.31-17.21h0Z"/>
  <path d="M823.38,388.38c68.45-50.06,139.52-96.41,212.92-138.87-12.07-9.28-24.13-18.55-36.2-27.83-25.01,61.81-67.54,117.93-120.44,158.57-10.53,8.09-16.16,21.2-8.84,33.71,6.06,10.37,23.09,17,33.71,8.84,64.12-49.27,112.75-113.05,143.09-188.03,8.43-20.83-19.09-37.72-36.2-27.83-73.4,42.46-144.47,88.81-212.92,138.87-10.73,7.84-16.05,21.39-8.84,33.71,6.19,10.59,22.91,16.74,33.71,8.84h0Z"/>
  <path d="M551.3,1081.96c-12.38-12.6-18.75-26.8-21.62-44.1-13.73,7.99-27.46,15.98-41.18,23.97,24.14,22.88,48.29,45.76,72.43,68.63,12.96,12.28,36.8,7.73,41.18-10.87,6.57-27.88,9.28-56.17,7.43-84.76-15.31,4.15-30.61,8.29-45.92,12.44,15.12,20.83,30.23,41.65,45.35,62.48,11.21,15.44,40.58,16.9,45.04-5.89,4.84-24.74,9.67-49.48,14.51-74.22-12.07,4.91-24.13,9.82-36.2,14.73,15.29,9.24,30.58,18.48,45.87,27.71,10.42,6.29,28.42,3.28,33.71-8.84,10.71-24.5,21.42-49.01,32.13-73.51h-42.55c6.2,13.24,12.39,26.48,18.59,39.73,10.12,21.64,37.82,11.3,45.04-5.89,6.96-16.56,17.45-31.08,29.89-43.89-13.73-3.62-27.46-7.25-41.18-10.87,7.87,22.15,15.74,44.3,23.62,66.45,5.91,16.64,27.7,25.28,41.18,10.87,9.2-9.83,18.39-19.65,27.59-29.48-9.95,1.28-19.91,2.57-29.86,3.85,12.13,7.54,19.93,21.65,17.42,36.21-5.35,31.02,42.13,44.34,47.52,13.1,6.37-36.94-7.84-71.83-40.07-91.86-8.99-5.59-22.57-3.93-29.86,3.85-9.2,9.83-18.39,19.65-27.59,29.48,13.73,3.62,27.46,7.25,41.18,10.87-7.87-22.15-15.74-44.3-23.62-66.45-6.01-16.91-27.49-24.96-41.18-10.87-18.78,19.31-32.18,40.9-42.57,65.63,15.01-1.96,30.02-3.92,45.04-5.89-6.2-13.24-12.39-26.48-18.59-39.73-7.4-15.81-35.37-16.44-42.55,0-10.71,24.5-21.42,49.01-32.13,73.51,11.24-2.95,22.48-5.89,33.71-8.84-15.29-9.24-30.58-18.48-45.87-27.71-12.81-7.74-33.14-.93-36.2,14.73-4.84,24.74-9.67,49.48-14.51,74.22,15.01-1.96,30.02-3.92,45.04-5.89-15.12-20.83-30.23-41.65-45.35-62.48-12.99-17.9-47.64-14.32-45.92,12.44,1.57,24.37-.07,47.87-5.67,71.66,13.73-3.62,27.46-7.25,41.18-10.87-24.14-22.88-48.29-45.76-72.43-68.63-18.99-17.99-45.07.49-41.18,23.97,4.19,25.31,16.37,47.62,34.29,65.84,22.27,22.65,57.11-12.2,34.85-34.85h0Z"/>
  <path d="M555.01,1206.31c-2.2-1.86-4.33-3.79-6.34-5.86-1-1.03-1.97-2.1-2.91-3.18-.61-.7-3.24-4.16-.8-.85,2.55,3.45-.56-.86-1.04-1.57-.68-.99-1.33-2-1.96-3.02-1.51-2.45-2.9-4.98-4.15-7.57-.2-.43-.41-.87-.61-1.3-1.06-2.38-.8-1.75.78,1.92-.13-1.09-.9-2.34-1.26-3.37-.87-2.49-1.62-5.02-2.25-7.59-.34-1.4-.64-2.81-.91-4.22-.13-.71-.26-1.42-.37-2.13-.3-1.94-.17-.94.39,2.99.27-2.7-.46-5.86-.49-8.62-10.4,7.92-20.79,15.84-31.19,23.76,4.56,1.38,9.03,2.97,13.47,4.68,4.05,1.56-4.07-1.82-1.28-.57,1.08.49,2.18.95,3.26,1.45,2.16.99,4.3,2.03,6.41,3.11,8.25,4.23,16.15,9.14,23.59,14.67,1.32.98,4.03,3.6-1.02-.82.71.62,1.49,1.19,2.22,1.79,1.84,1.5,3.65,3.05,5.42,4.63,3.55,3.16,6.96,6.47,10.23,9.93,3.27,3.45,6.35,7.06,9.34,10.76,2.07,2.56-.75-.83-1.24-1.6.63.99,1.43,1.92,2.11,2.87,1.53,2.12,2.99,4.29,4.42,6.48,7.04,10.78,22.14,16.3,33.71,8.84,10.76-6.94,16.38-22.17,8.84-33.71-25.01-38.26-62.61-66.75-106.4-80.02-15.28-4.63-31.34,8.06-31.19,23.76.29,29.81,13.38,59.91,36.35,79.24,5.1,4.3,10.54,7.22,17.42,7.22,6.04,0,13.26-2.68,17.42-7.22,8.39-9.14,10.53-25.98,0-34.85h0Z"/>
  <path d="M810.67,1174.89c.06-1.36.17-2.7.34-4.06-.29,2.18-.59,4.37-.88,6.55.55-3.67,1.55-7.16,2.99-10.58-.83,1.96-1.66,3.92-2.48,5.89,1.52-3.38,3.39-6.51,5.61-9.47-1.28,1.66-2.57,3.32-3.85,4.99,2.73-3.48,5.82-6.56,9.3-9.29-1.66,1.28-3.32,2.57-4.99,3.85,3.54-2.68,7.31-4.91,11.37-6.71-1.96.83-3.92,1.66-5.89,2.48,4.06-1.7,8.24-2.9,12.59-3.56-2.18.29-4.37.59-6.55.88,4-.51,7.97-.53,11.97,0-2.18-.29-4.37-.59-6.55-.88,3.34.53,6.53,1.41,9.66,2.7-1.96-.83-3.92-1.66-5.89-2.48,3.19,1.41,6.12,3.17,8.88,5.29-1.66-1.28-3.32-2.57-4.99-3.85,2.69,2.17,5.07,4.59,7.23,7.29-1.28-1.66-2.57-3.32-3.85-4.99,2.7,3.52,4.88,7.31,6.63,11.39-.83-1.96-1.66-3.92-2.48-5.89,1.68,4.14,2.85,8.4,3.52,12.82-.29-2.18-.59-4.37-.88-6.55.63,4.73.67,9.43.06,14.16.29-2.18.59-4.37.88-6.55-.56,3.73-1.51,7.32-2.91,10.82.83-1.96,1.66-3.92,2.48-5.89-1.36,3.19-3.05,6.15-5.12,8.94,1.28-1.66,2.57-3.32,3.85-4.99-.59.75-1.19,1.48-1.82,2.21-4.33,4.99-7.22,10.64-7.22,17.42,0,6.04,2.68,13.26,7.22,17.42,9.27,8.51,25.82,10.39,34.85,0,11.58-13.34,18.1-30.05,17.52-47.87-.58-17.68-6.89-33.6-17.87-47.31-11.27-14.07-28.48-21.58-46.17-22.83-17.16-1.21-34.5,5.54-47.88,15.88-16.69,12.89-27.03,31.54-27.95,52.75-.56,12.89,11.73,25.22,24.64,24.64,13.83-.62,24.04-10.83,24.64-24.64h0Z"/>
  <path d="M304.17,676.41c-8.74,7.77-17.49,15.54-26.23,23.31-2.4,2.23-4.1,4.88-5.09,7.93-1.54,2.94-2.25,6.1-2.12,9.49-.13,3.39.58,6.56,2.12,9.49.99,3.05,2.69,5.7,5.09,7.93,4.7,4.31,10.86,7.51,17.42,7.22,2.18-.29,4.37-.59,6.55-.88,4.17-1.17,7.8-3.28,10.87-6.34,8.74-7.77,17.49-15.54,26.23-23.31,2.4-2.23,4.1-4.88,5.09-7.93,1.54-2.94,2.25-6.1,2.12-9.49.13-3.39-.58-6.56-2.12-9.49-.99-3.05-2.69-5.7-5.09-7.93-4.7-4.31-10.86-7.51-17.42-7.22-2.18.29-4.37.59-6.55.88-4.17,1.17-7.8,3.28-10.87,6.34h0Z"/>
  <path d="M510.98,493.55c12.63-.95,25.26-1.9,37.89-2.86,3.39.13,6.56-.58,9.49-2.12,3.05-.99,5.7-2.69,7.93-5.09,4.27-4.27,7.49-11.29,7.22-17.42-.29-6.37-2.38-12.98-7.22-17.42-4.61-4.23-10.95-7.71-17.42-7.22-12.63.95-25.26,1.9-37.89,2.86-3.39-.13-6.56.58-9.49,2.12-3.05.99-5.7,2.69-7.93,5.09-4.27,4.27-7.49,11.29-7.22,17.42.29,6.37,2.38,12.98,7.22,17.42,4.61,4.23,10.95,7.71,17.42,7.22h0Z"/>
  <path d="M701.31,548.21c1.13,9.7,2.25,19.39,3.38,29.09-.13,3.39.58,6.56,2.12,9.49.99,3.05,2.69,5.7,5.09,7.93,2.23,2.4,4.88,4.1,7.93,5.09,2.94,1.54,6.1,2.25,9.49,2.12,6.37-.29,12.98-2.38,17.42-7.22,1.28-1.66,2.57-3.32,3.85-4.99,2.23-3.84,3.35-7.99,3.36-12.44-1.13-9.7-2.25-19.39-3.38-29.09.13-3.39-.58-6.56-2.12-9.49-.99-3.05-2.69-5.7-5.09-7.93-2.23-2.4-4.88-4.1-7.93-5.09-2.94-1.54-6.1-2.25-9.49-2.12-6.37.29-12.98,2.38-17.42,7.22-1.28,1.66-2.57,3.32-3.85,4.99-2.23,3.84-3.35,7.99-3.36,12.44h0Z"/>
</svg>